0
SECTION
2
HEADER
9
$INSUNITS
70
1
9
$ACADVER
1
AC1014
9
$HANDSEED
5
FFFF
0
ENDSEC
0
SECTION
2
TABLES
0
TABLE
2
VPORT
5
8
100
AcDbSymbolTable
0
ENDTAB
0
TABLE
2
LTYPE
5
5
100
AcDbSymbolTable
0
LTYPE
5
14
100
AcDbSymbolTableRecord
100
AcDbLinetypeTableRecord
2
BYBLOCK
70
0
0
LTYPE
5
15
100
AcDbSymbolTableRecord
100
AcDbLinetypeTableRecord
2
BYLAYER
70
0
0
ENDTAB
0
TABLE
2
LAYER
5
2
100
AcDbSymbolTable
70
2
0
LAYER
5
50
100
AcDbSymbolTableRecord
100
AcDbLayerTableRecord
2
0
70
0
6
CONTINUOUS
0
ENDTAB
0
TABLE
2
STYLE
5
3
100
AcDbSymbolTable
70
1
0
STYLE
5
11
100
AcDbSymbolTableRecord
100
AcDbTextStyleTableRecord
2
STANDARD
70
0
0
ENDTAB
0
TABLE
2
VIEW
5
6
100
AcDbSymbolTable
70
0
0
ENDTAB
0
TABLE
2
UCS
5
7
100
AcDbSymbolTable
70
0
0
ENDTAB
0
TABLE
2
APPID
5
9
100
AcDbSymbolTable
70
2
0
APPID
5
12
100
AcDbSymbolTableRecord
100
AcDbRegAppTableRecord
2
ACAD
70
0
0
ENDTAB
0
TABLE
2
DIMSTYLE
5
A
100
AcDbSymbolTable
70
1
0
ENDTAB
0
TABLE
2
BLOCK_RECORD
5
1
100
AcDbSymbolTable
70
1
0
BLOCK_RECORD
5
1F
100
AcDbSymbolTableRecord
100
AcDbBlockTableRecord
2
*MODEL_SPACE
0
BLOCK_RECORD
5
1B
100
AcDbSymbolTableRecord
100
AcDbBlockTableRecord
2
*PAPER_SPACE
0
ENDTAB
0
ENDSEC
0
SECTION
2
BLOCKS
0
BLOCK
5
20
100
AcDbEntity
100
AcDbBlockBegin
2
*MODEL_SPACE
0
ENDBLK
5
21
100
AcDbEntity
100
AcDbBlockEnd
0
BLOCK
5
1C
100
AcDbEntity
100
AcDbBlockBegin
2
*PAPER_SPACE
0
ENDBLK
5
1D
100
AcDbEntity
100
AcDbBlockEnd
0
ENDSEC
0
SECTION
2
ENTITIES
0
LWPOLYLINE
5
100
100
AcDbEntity
8
0
100
AcDbPolyline
90
9
70
1
43
0.0
10
-4.875
20
3.0625000000000004
10
4.875
20
3.0625000000000004
10
4.875
20
-3.0624999999999996
10
1.5000000000000002
20
-3.0624999999999996
10
1.5
20
-4.0624999999999991
10
0
20
-4.0624999999999991
10
-1.5
20
-4.0624999999999991
10
-1.5
20
-3.0624999999999996
10
-4.875
20
-3.0624999999999996
0
LINE
5
101
100
AcDbEntity
8
0
100
AcDbLine
10
1.7815736994619129
20
2.3942510594399944
30
0
11
1.7677925370286864
21
1.7358514766460018
31
0
0
LINE
5
102
100
AcDbEntity
8
0
100
AcDbLine
10
1.7677925370286864
20
1.7358514766460018
30
0
11
2.1493239902659864
21
1.7278655254579172
31
0
0
LINE
5
103
100
AcDbEntity
8
0
100
AcDbLine
10
2.1493239902659864
20
1.7278655254579172
30
0
11
2.2925176622184193
21
1.6070004793423582
31
0
0
LINE
5
104
100
AcDbEntity
8
0
100
AcDbLine
10
2.2925176622184193
20
1.6070004793423582
30
0
11
1.1949315861191601
21
-0.28427224157839021
31
0
0
LINE
5
105
100
AcDbEntity
8
0
100
AcDbLine
10
1.1949315861191601
20
-0.28427224157839021
30
0
11
1.5718367180987343
21
-0.60932050728775722
31
0
0
LINE
5
106
100
AcDbEntity
8
0
100
AcDbLine
10
1.5718367180987343
20
-0.60932050728775722
30
0
11
1.8208484414593411
21
-1.0186156387885235
31
0
0
LINE
5
107
100
AcDbEntity
8
0
100
AcDbLine
10
1.8208484414593411
20
-1.0186156387885235
30
0
11
-0.066759082913015522
21
0.21103991560025667
31
0
0
LINE
5
108
100
AcDbEntity
8
0
100
AcDbLine
10
-0.066759082913015522
20
0.21103991560025667
30
0
11
1.5547105659603662
21
1.6895836683723371
31
0
0
LINE
5
109
100
AcDbEntity
8
0
100
AcDbLine
10
1.5547105659603662
20
1.6895836683723371
30
0
11
0.39540558037699197
21
-0.090030798475087437
31
0
0
LINE
5
110
100
AcDbEntity
8
0
100
AcDbLine
10
0.39540558037699197
20
-0.090030798475087437
30
0
11
0.84918930087085687
21
0.013900748563979767
31
0
0
LINE
5
111
100
AcDbEntity
8
0
100
AcDbLine
10
0.84918930087085687
20
0.013900748563979767
30
0
11
2.1493239902659864
21
1.7278655254579172
31
0
0
LINE
5
112
100
AcDbEntity
8
0
100
AcDbLine
10
0.39540558037699197
20
-0.090030798475087437
30
0
11
1.3958092148222476
21
0.73450861058276262
31
0
0
LINE
5
113
100
AcDbEntity
8
0
100
AcDbLine
10
1.9104261292599289
20
0.94861084693430964
30
0
11
1.3958092148222476
21
0.73450861058276262
31
0
0
LINE
5
114
100
AcDbEntity
8
0
100
AcDbLine
10
0.84918930087085687
20
0.013900748563979767
30
0
11
1.1949315861191601
21
-0.28427224157839021
31
0
0
LINE
5
115
100
AcDbEntity
8
0
100
AcDbLine
10
-0.066759082913015522
20
0.21103991560025667
30
0
11
-2.8764024221561515
21
-0.76650340605442424
31
0
0
LINE
5
116
100
AcDbEntity
8
0
100
AcDbLine
10
-2.8764024221561515
20
-0.76650340605442424
30
0
11
-1.8810159271964968
21
0.16162724465120004
31
0
0
LINE
5
117
100
AcDbEntity
8
0
100
AcDbLine
10
-1.8810159271964968
20
0.16162724465120004
30
0
11
-2.1780291494960418
21
0.34821247404450384
31
0
0
LINE
5
118
100
AcDbEntity
8
0
100
AcDbLine
10
-2.1780291494960418
20
0.34821247404450384
30
0
11
-1.1142993027005463
21
0.94852062242335999
31
0
0
LINE
5
119
100
AcDbEntity
8
0
100
AcDbLine
10
-1.1142993027005463
20
0.94852062242335999
30
0
11
-1.8810159271964968
21
0.16162724465120004
31
0
0
LINE
5
120
100
AcDbEntity
8
0
100
AcDbLine
10
-1.055281498958675
20
-0.13289109963375992
30
0
11
-1.8810159271964968
21
0.16162724465120004
31
0
0
LINE
5
121
100
AcDbEntity
8
0
100
AcDbLine
10
-1.055281498958675
20
-0.13289109963375992
30
0
11
1.5547105659603662
21
1.6895836683723371
31
0
0
LINE
5
122
100
AcDbEntity
8
0
100
AcDbLine
10
1.7815736994619129
20
2.3942510594399944
30
0
11
1.5547105659603662
21
1.6895836683723371
31
0
0
LINE
5
123
100
AcDbEntity
8
0
100
AcDbLine
10
1.7677925370286864
20
1.7358514766460018
30
0
11
1.5547105659603662
21
1.6895836683723371
31
0
0
LINE
5
124
100
AcDbEntity
8
0
100
AcDbLine
10
1.7815736994619129
20
2.3942510594399944
30
0
11
1.4391350080325793
21
2.8466194995980953
31
0
0
LINE
5
125
100
AcDbEntity
8
0
100
AcDbLine
10
1.4391350080325793
20
2.8466194995980953
30
0
11
1.0153156943642099
21
2.7545929867534356
31
0
0
LINE
5
126
100
AcDbEntity
8
0
100
AcDbLine
10
1.0153156943642099
20
2.7545929867534356
30
0
11
1.1638731099671227
21
2.9271206207304461
31
0
0
LINE
5
127
100
AcDbEntity
8
0
100
AcDbLine
10
1.1638731099671227
20
2.9271206207304461
30
0
11
1.4391350080325793
21
2.8466194995980953
31
0
0
LINE
5
128
100
AcDbEntity
8
0
100
AcDbLine
10
1.0153156943642099
20
2.7545929867534356
30
0
11
0.41858853690310294
21
1.9740912189377799
31
0
0
LINE
5
129
100
AcDbEntity
8
0
100
AcDbLine
10
0.41858853690310294
20
1.9740912189377799
30
0
11
0.0056956898049177846
21
1.9143645806782938
31
0
0
LINE
5
130
100
AcDbEntity
8
0
100
AcDbLine
10
0.0056956898049177846
20
1.9143645806782938
30
0
11
-0.47990784734829339
21
1.122337421150329
31
0
0
LINE
5
131
100
AcDbEntity
8
0
100
AcDbLine
10
-0.47990784734829339
20
1.122337421150329
30
0
11
-0.13972569030513465
21
1.0781916450454916
31
0
0
LINE
5
132
100
AcDbEntity
8
0
100
AcDbLine
10
-0.13972569030513465
20
1.0781916450454916
30
0
11
0.69617876441800353
21
1.5964393977837872
31
0
0
LINE
5
133
100
AcDbEntity
8
0
100
AcDbLine
10
0.69617876441800353
20
1.5964393977837872
30
0
11
0.41858853690310294
21
1.9740912189377799
31
0
0
LINE
5
134
100
AcDbEntity
8
0
100
AcDbLine
10
0.69617876441800353
20
1.5964393977837872
30
0
11
1.5547105659603662
21
1.6895836683723371
31
0
0
LINE
5
135
100
AcDbEntity
8
0
100
AcDbLine
10
1.7815736994619129
20
2.3942510594399944
30
0
11
0.69617876441800353
21
1.5964393977837872
31
0
0
LINE
5
136
100
AcDbEntity
8
0
100
AcDbLine
10
0.69617876441800353
20
1.5964393977837872
30
0
11
1.5153773265405528
21
2.7459018541897149
31
0
0
LWPOLYLINE
5
137
100
AcDbEntity
8
0
100
AcDbPolyline
90
4
70
1
43
0.0
10
0.34799668416069351
20
1.641201313469451
10
0.3452387474863014
20
1.8080564822701466
10
0.17838357868560586
20
1.8052985455957546
10
-0.065806770035915313
20
1.4225604812875547
0
LINE
5
138
100
AcDbEntity
8
0
100
AcDbLine
10
0.0056956898049177846
20
1.9143645806782938
30
0
11
-0.349652733206678
21
1.7266095628459259
31
0
0
LINE
5
139
100
AcDbEntity
8
0
100
AcDbLine
10
-0.349652733206678
20
1.7266095628459259
30
0
11
-1.1142993027005463
21
0.94852062242335999
31
0
0
LINE
5
140
100
AcDbEntity
8
0
100
AcDbLine
10
-0.47990784734829339
20
1.122337421150329
30
0
11
-0.50121022384119995
21
1.1251018516875764
31
0
0
LINE
5
141
100
AcDbEntity
8
0
100
AcDbLine
10
-0.50121022384119995
20
1.1251018516875764
30
0
11
-1.8810159271964968
21
0.16162724465120004
31
0
0
LINE
5
142
100
AcDbEntity
8
0
100
AcDbLine
10
-0.13972569030513465
20
1.0781916450454916
30
0
11
-0.22131967188784185
21
0.44943802226109991
31
0
0
LINE
5
143
100
AcDbEntity
8
0
100
AcDbLine
10
0.69617876441800353
20
1.5964393977837872
30
0
11
-0.22131967188784185
21
0.44943802226109991
31
0
0
LINE
5
144
100
AcDbEntity
8
0
100
AcDbLine
10
-2.2013732181043717
20
-0.53164431161845627
30
0
11
0.4198759362809919
21
-0.63495019808605646
31
0
0
LINE
5
145
100
AcDbEntity
8
0
100
AcDbLine
10
0.4198759362809919
20
-0.63495019808605646
30
0
11
1.6663170586443721
21
-0.91794832805135695
31
0
0
LINE
5
146
100
AcDbEntity
8
0
100
AcDbLine
10
1.6663170586443721
20
-0.91794832805135695
30
0
11
1.1303629410970406
21
-2.5295822109288539
31
0
0
LINE
5
147
100
AcDbEntity
8
0
100
AcDbLine
10
1.1303629410970406
20
-2.5295822109288539
30
0
11
0.92909416282093671
21
-0.750565611657945
31
0
0
LINE
5
148
100
AcDbEntity
8
0
100
AcDbLine
10
0.86317124697818493
20
-1.2179138943453791
30
0
11
0.92909416282093671
21
-0.750565611657945
31
0
0
LINE
5
149
100
AcDbEntity
8
0
100
AcDbLine
10
0.86317124697818493
20
-1.2179138943453791
30
0
11
0.12839408815133058
21
-1.6400739112933995
31
0
0
LINE
5
150
100
AcDbEntity
8
0
100
AcDbLine
10
0.12839408815133058
20
-1.6400739112933995
30
0
11
0.4198759362809919
21
-0.63495019808605646
31
0
0
LINE
5
151
100
AcDbEntity
8
0
100
AcDbLine
10
0.4198759362809919
20
-0.63495019808605646
30
0
11
-1.2136369209456512
21
-2.2381003627991927
31
0
0
LINE
5
152
100
AcDbEntity
8
0
100
AcDbLine
10
-1.2136369209456512
20
-2.2381003627991927
30
0
11
-1.3047249984861706
21
-2.043779130712752
31
0
0
LINE
5
153
100
AcDbEntity
8
0
100
AcDbLine
10
-1.3047249984861706
20
-2.043779130712752
30
0
11
0.4198759362809919
21
-0.63495019808605646
31
0
0
LINE
5
154
100
AcDbEntity
8
0
100
AcDbLine
10
-1.3047249984861706
20
-2.043779130712752
30
0
11
-1.5834323786779536
21
-2.2714555821370253
31
0
0
LINE
5
155
100
AcDbEntity
8
0
100
AcDbLine
10
-1.5834323786779536
20
-2.2714555821370253
30
0
11
-1.7258035902791387
21
-1.89584154141974
31
0
0
LINE
5
156
100
AcDbEntity
8
0
100
AcDbLine
10
-1.7258035902791387
20
-1.89584154141974
30
0
11
-1.8443759324230065
21
-2.1351035889600447
31
0
0
LINE
5
157
100
AcDbEntity
8
0
100
AcDbLine
10
-1.8443759324230065
20
-2.1351035889600447
30
0
11
-2.2013732181043717
21
-0.53164431161845627
31
0
0
LINE
5
158
100
AcDbEntity
8
0
100
AcDbLine
10
-1.7258035902791387
20
-1.89584154141974
30
0
11
-1.0718029776104829
21
-0.57616173371334423
31
0
0
LWPOLYLINE
5
159
100
AcDbEntity
8
0
100
AcDbPolyline
90
3
70
1
43
0.0
10
0.25045614078659628
20
-0.86384481442143435
10
-1.0881762036512077
20
-2.1775955167693146
10
-0.64072037192230769
20
-2.4561667036534298
0
LWPOLYLINE
5
160
100
AcDbEntity
8
0
100
AcDbPolyline
90
3
70
1
43
0.0
10
0.1113139316329005
20
-1.3792641939639589
10
-0.53227947943425546
20
-2.5292135716608826
10
-0.23250774804577046
20
-2.5292135716608826
0
LWPOLYLINE
5
161
100
AcDbEntity
8
0
100
AcDbPolyline
90
4
70
1
43
0.0
10
0.63831929310758462
20
-2.7911876490378447
10
0.81849402141403227
20
-1.4173553457011785
10
0.11244954414579682
20
-1.8230072428906654
10
-0.021141961358062906
20
-2.2698187085414996
0
LWPOLYLINE
5
162
100
AcDbEntity
8
0
100
AcDbPolyline
90
3
70
1
43
0.0
10
0.68528847516248181
20
-2.9833032338795853
10
0.9146186815797005
20
-1.2346604099482914
10
1.09464942854625
20
-2.8259538533519684
0
LWPOLYLINE
5
163
100
AcDbEntity
8
0
100
AcDbPolyline
90
4
70
1
43
0.0
10
1.9052555336176284
20
-1.1383837554803089
10
1.7415760049562958
20
-1.0355594361930618
10
1.2049314030322498
20
-2.6492696311664576
10
1.6416022272519026
20
-2.7911876490378451
0
LINE
5
164
100
AcDbEntity
8
0
100
AcDbLine
10
0.13093564732844701
20
0.082254445116589137
30
0
11
0
21
0
31
0
0
LINE
5
165
100
AcDbEntity
8
0
100
AcDbLine
10
-0.23999585304110205
20
0.15076662562838547
30
0
11
0
21
0
31
0
0
ENDSEC
0
SECTION
2
OBJECTS
0
DICTIONARY
5
C
100
AcDbDictionary
3
ACAD_GROUP
350
D
3
ACAD_MLINESTYLE
350
17
0
DICTIONARY
5
D
100
AcDbDictionary
0
DICTIONARY
5
1A
330
C
100
AcDbDictionary
0
DICTIONARY
5
17
100
AcDbDictionary
0
ENDSEC
0
EOF
