0
SECTION
2
HEADER
9
$INSUNITS
70
1
9
$ACADVER
1
AC1014
9
$HANDSEED
5
FFFF
0
ENDSEC
0
SECTION
2
TABLES
0
TABLE
2
VPORT
5
8
100
AcDbSymbolTable
0
ENDTAB
0
TABLE
2
LTYPE
5
5
100
AcDbSymbolTable
0
LTYPE
5
14
100
AcDbSymbolTableRecord
100
AcDbLinetypeTableRecord
2
BYBLOCK
70
0
0
LTYPE
5
15
100
AcDbSymbolTableRecord
100
AcDbLinetypeTableRecord
2
BYLAYER
70
0
0
ENDTAB
0
TABLE
2
LAYER
5
2
100
AcDbSymbolTable
70
2
0
LAYER
5
50
100
AcDbSymbolTableRecord
100
AcDbLayerTableRecord
2
0
70
0
6
CONTINUOUS
0
ENDTAB
0
TABLE
2
STYLE
5
3
100
AcDbSymbolTable
70
1
0
STYLE
5
11
100
AcDbSymbolTableRecord
100
AcDbTextStyleTableRecord
2
STANDARD
70
0
0
ENDTAB
0
TABLE
2
VIEW
5
6
100
AcDbSymbolTable
70
0
0
ENDTAB
0
TABLE
2
UCS
5
7
100
AcDbSymbolTable
70
0
0
ENDTAB
0
TABLE
2
APPID
5
9
100
AcDbSymbolTable
70
2
0
APPID
5
12
100
AcDbSymbolTableRecord
100
AcDbRegAppTableRecord
2
ACAD
70
0
0
ENDTAB
0
TABLE
2
DIMSTYLE
5
A
100
AcDbSymbolTable
70
1
0
ENDTAB
0
TABLE
2
BLOCK_RECORD
5
1
100
AcDbSymbolTable
70
1
0
BLOCK_RECORD
5
1F
100
AcDbSymbolTableRecord
100
AcDbBlockTableRecord
2
*MODEL_SPACE
0
BLOCK_RECORD
5
1B
100
AcDbSymbolTableRecord
100
AcDbBlockTableRecord
2
*PAPER_SPACE
0
ENDTAB
0
ENDSEC
0
SECTION
2
BLOCKS
0
BLOCK
5
20
100
AcDbEntity
100
AcDbBlockBegin
2
*MODEL_SPACE
0
ENDBLK
5
21
100
AcDbEntity
100
AcDbBlockEnd
0
BLOCK
5
1C
100
AcDbEntity
100
AcDbBlockBegin
2
*PAPER_SPACE
0
ENDBLK
5
1D
100
AcDbEntity
100
AcDbBlockEnd
0
ENDSEC
0
SECTION
2
ENTITIES
0
LINE
5
100
100
AcDbEntity
8
0
100
AcDbLine
10
0.25000000797857447
20
0.75
30
0
11
0
21
0.75
31
0
0
LINE
5
101
100
AcDbEntity
8
0
100
AcDbLine
10
0
20
0.75
30
0
11
0.25000000797857447
21
0.75
31
0
0
LINE
5
102
100
AcDbEntity
8
0
100
AcDbLine
10
0.25000022007903383
20
1.1799996808570419
30
0
11
0.25000000797857447
21
0.75
31
0
0
LINE
5
103
100
AcDbEntity
8
0
100
AcDbLine
10
0.25000000797857447
20
0.75
30
0
11
0.25000022007903383
21
1.1799996808570419
31
0
0
LINE
5
104
100
AcDbEntity
8
0
100
AcDbLine
10
0.38000013072446931
20
1.1800004388208769
30
0
11
0.25000022007903383
21
1.1799996808570419
31
0
0
LINE
5
105
100
AcDbEntity
8
0
100
AcDbLine
10
0.25000022007903383
20
1.1799996808570419
30
0
11
0.38000013072446931
21
1.1800004388208769
31
0
0
LINE
5
106
100
AcDbEntity
8
0
100
AcDbLine
10
0.38000013072446931
20
1.1800004388208769
30
0
11
0.38000017491305349
21
1.0900004388208877
31
0
0
LINE
5
107
100
AcDbEntity
8
0
100
AcDbLine
10
0.38000017491305349
20
1.0900004388208877
30
0
11
0.49000033202800652
21
1.0900004928292344
31
0
0
LINE
5
108
100
AcDbEntity
8
0
100
AcDbLine
10
0.49000033202800652
20
1.0900004928292344
30
0
11
0.49000017491304015
21
1.4100004928291958
31
0
0
LINE
5
109
100
AcDbEntity
8
0
100
AcDbLine
10
0.49000017491304015
20
1.4100004928291958
30
0
11
0.38000017491305349
21
1.4100004388209262
31
0
0
LINE
5
110
100
AcDbEntity
8
0
100
AcDbLine
10
0.38000017491305349
20
1.4100004388209262
30
0
11
0.38000021910163806
21
1.320000438820937
31
0
0
LINE
5
111
100
AcDbEntity
8
0
100
AcDbLine
10
0.38000021910163806
20
1.320000438820937
30
0
11
0.2500002191016536
21
1.3200003749929821
31
0
0
LINE
5
112
100
AcDbEntity
8
0
100
AcDbLine
10
0.2500002191016536
20
1.3200003749929821
30
0
11
0.25000000797857447
21
1.7500000558500213
31
0
0
LINE
5
113
100
AcDbEntity
8
0
100
AcDbLine
10
0.25000000797857447
20
1.7500000558500213
30
0
11
0
21
1.7500000558500213
31
0
0
LINE
5
114
100
AcDbEntity
8
0
100
AcDbLine
10
0
20
1.7500000558500213
30
0
11
0
21
2.2500000558500211
31
0
0
LINE
5
115
100
AcDbEntity
8
0
100
AcDbLine
10
0
20
2.2500000558500211
30
0
11
0.7500000239357234
21
2.2500000558500211
31
0
0
LINE
5
116
100
AcDbEntity
8
0
100
AcDbLine
10
0.7500000239357234
20
2.2500000558500211
30
0
11
0.7500000239357234
21
2.5000000797857447
31
0
0
LINE
5
117
100
AcDbEntity
8
0
100
AcDbLine
10
0.7500000239357234
20
2.5000000797857447
30
0
11
1.2500000398928723
21
2.5000000797857447
31
0
0
LINE
5
118
100
AcDbEntity
8
0
100
AcDbLine
10
1.2500000398928723
20
2.5000000797857447
30
0
11
1.2500000398928723
21
2.2500000558500211
31
0
0
LINE
5
119
100
AcDbEntity
8
0
100
AcDbLine
10
1.2500000398928723
20
2.2500000558500211
30
0
11
2.0000000638285957
21
2.2500000558500211
31
0
0
LINE
5
120
100
AcDbEntity
8
0
100
AcDbLine
10
2.0000000638285957
20
2.2500000558500211
30
0
11
2.0000000638285957
21
2.5000000797857447
31
0
0
LINE
5
121
100
AcDbEntity
8
0
100
AcDbLine
10
2.0000000638285957
20
2.5000000797857447
30
0
11
2.5000000638285957
21
2.5000000797857447
31
0
0
LINE
5
122
100
AcDbEntity
8
0
100
AcDbLine
10
2.5000000638285957
20
2.5000000797857447
30
0
11
2.5000000638285957
21
2.2500000558500211
31
0
0
LINE
5
123
100
AcDbEntity
8
0
100
AcDbLine
10
2.5000000638285957
20
2.2500000558500211
30
0
11
3.2500000638285953
21
2.2500000558500211
31
0
0
LINE
5
124
100
AcDbEntity
8
0
100
AcDbLine
10
3.2500000638285953
20
2.2500000558500211
30
0
11
3.2500000638285953
21
2.5000000797857447
31
0
0
LINE
5
125
100
AcDbEntity
8
0
100
AcDbLine
10
3.2500000638285953
20
2.5000000797857447
30
0
11
3.7500000638285953
21
2.5000000797857447
31
0
0
LINE
5
126
100
AcDbEntity
8
0
100
AcDbLine
10
3.7500000638285953
20
2.5000000797857447
30
0
11
3.7500000638285953
21
2.2500000558500211
31
0
0
LINE
5
127
100
AcDbEntity
8
0
100
AcDbLine
10
3.7500000638285953
20
2.2500000558500211
30
0
11
4.5000001436143409
21
2.2500000558500211
31
0
0
LINE
5
128
100
AcDbEntity
8
0
100
AcDbLine
10
4.5000001436143409
20
2.2500000558500211
30
0
11
4.5000001436143409
21
1.7500000558500213
31
0
0
LINE
5
129
100
AcDbEntity
8
0
100
AcDbLine
10
4.5000001436143409
20
1.7500000558500213
30
0
11
4.2500001356357657
21
1.7500000558500213
31
0
0
LINE
5
130
100
AcDbEntity
8
0
100
AcDbLine
10
4.2500001356357657
20
1.7500000558500213
30
0
11
4.2500001351470784
21
1.3200000558500213
31
0
0
LINE
5
131
100
AcDbEntity
8
0
100
AcDbLine
10
4.2500001351470784
20
1.3200000558500213
30
0
11
4.1200001351470785
21
1.3200000549424586
31
0
0
LINE
5
132
100
AcDbEntity
8
0
100
AcDbLine
10
4.1200001351470785
20
1.3200000549424586
30
0
11
4.120000134518766
21
1.4100000549424587
31
0
0
LINE
5
133
100
AcDbEntity
8
0
100
AcDbLine
10
4.120000134518766
20
1.4100000549424587
30
0
11
4.0100001345187657
21
1.4100000541745208
31
0
0
LINE
5
134
100
AcDbEntity
8
0
100
AcDbLine
10
4.0100001345187657
20
1.4100000541745208
30
0
11
4.0100001367527662
21
1.0899999868271402
31
0
0
LINE
5
135
100
AcDbEntity
8
0
100
AcDbLine
10
4.0100001367527662
20
1.0899999868271402
30
0
11
4.1200001367527666
21
1.0900000549424584
31
0
0
LINE
5
136
100
AcDbEntity
8
0
100
AcDbLine
10
4.1200001367527666
20
1.0900000549424584
30
0
11
4.120000136124454
21
1.1800000549424585
31
0
0
LINE
5
137
100
AcDbEntity
8
0
100
AcDbLine
10
4.120000136124454
20
1.1800000549424585
30
0
11
4.2500001361244539
21
1.1800000558500214
31
0
0
LINE
5
138
100
AcDbEntity
8
0
100
AcDbLine
10
4.2500001361244539
20
1.1800000558500214
30
0
11
4.2500001356357657
21
0.75000005585002139
31
0
0
LINE
5
139
100
AcDbEntity
8
0
100
AcDbLine
10
4.2500001361244539
20
1.1800000558500214
30
0
11
4.2500001356357657
21
0.75000005585002139
31
0
0
LINE
5
140
100
AcDbEntity
8
0
100
AcDbLine
10
4.2500001356357657
20
0.75000005585002139
30
0
11
4.5000001436143409
21
0.75000005585002139
31
0
0
LINE
5
141
100
AcDbEntity
8
0
100
AcDbLine
10
4.5000001436143409
20
0.75000005585002139
30
0
11
4.5000001436143409
21
0.25000000797857447
31
0
0
LINE
5
142
100
AcDbEntity
8
0
100
AcDbLine
10
4.5000001436143409
20
0.25000000797857447
30
0
11
3.7500001436143409
21
0.25000000797857447
31
0
0
LINE
5
143
100
AcDbEntity
8
0
100
AcDbLine
10
3.7500001436143409
20
0.25000000797857447
30
0
11
3.7500001436143409
21
0
31
0
0
LINE
5
144
100
AcDbEntity
8
0
100
AcDbLine
10
3.7500001436143409
20
0
30
0
11
3.2500001436143413
21
0
31
0
0
LINE
5
145
100
AcDbEntity
8
0
100
AcDbLine
10
3.2500001436143413
20
0
30
0
11
3.2500001436143413
21
0.25000000797857447
31
0
0
LINE
5
146
100
AcDbEntity
8
0
100
AcDbLine
10
3.2500001436143413
20
0.25000000797857447
30
0
11
2.5000000797857447
21
0.25000000797857447
31
0
0
LINE
5
147
100
AcDbEntity
8
0
100
AcDbLine
10
2.5000000797857447
20
0.25000000797857447
30
0
11
2.5000000797857447
21
0
31
0
0
LINE
5
148
100
AcDbEntity
8
0
100
AcDbLine
10
2.5000000797857447
20
0
30
0
11
2.0000000638285957
21
0
31
0
0
LINE
5
149
100
AcDbEntity
8
0
100
AcDbLine
10
2.0000000638285957
20
0
30
0
11
2.0000000638285957
21
0.25000000797857447
31
0
0
LINE
5
150
100
AcDbEntity
8
0
100
AcDbLine
10
2.0000000638285957
20
0.25000000797857447
30
0
11
1.2500000398928723
21
0.25000000797857447
31
0
0
LINE
5
151
100
AcDbEntity
8
0
100
AcDbLine
10
1.2500000398928723
20
0.25000000797857447
30
0
11
1.2500000398928723
21
0
31
0
0
LINE
5
152
100
AcDbEntity
8
0
100
AcDbLine
10
1.2500000398928723
20
0
30
0
11
0.75000003989287256
21
0
31
0
0
LINE
5
153
100
AcDbEntity
8
0
100
AcDbLine
10
0.75000003989287256
20
0
30
0
11
0.75000003989287256
21
0.25000000797857447
31
0
0
LINE
5
154
100
AcDbEntity
8
0
100
AcDbLine
10
0.75000003989287256
20
0.25000000797857447
30
0
11
0
21
0.25000000797857447
31
0
0
LINE
5
155
100
AcDbEntity
8
0
100
AcDbLine
10
0
20
0.25000000797857447
30
0
11
0
21
0.75
31
0
0
CIRCLE
5
156
100
AcDbEntity
8
0
100
AcDbCircle
10
2.2500000660725696
20
2.3750000797857447
30
0
40
0.065999999999999753
210
0
220
0
230
1
0
CIRCLE
5
157
100
AcDbEntity
8
0
100
AcDbCircle
10
3.5000001279065223
20
2.375000097238877
30
0
40
0.066000000000000086
210
0
220
0
230
1
0
CIRCLE
5
158
100
AcDbEntity
8
0
100
AcDbCircle
10
1.000000024185054
20
2.3750000623326128
30
0
40
0.065999999999999906
210
0
220
0
230
1
0
CIRCLE
5
159
100
AcDbEntity
8
0
100
AcDbCircle
10
1.0000000398928726
20
0.12500000398928723
30
0
40
0.065999999999999989
210
0
220
0
230
1
0
CIRCLE
5
160
100
AcDbEntity
8
0
100
AcDbCircle
10
2.2500000817803882
20
0.12500000398928723
30
0
40
0.065999999999999837
210
0
220
0
230
1
0
CIRCLE
5
161
100
AcDbEntity
8
0
100
AcDbCircle
10
3.5000001436143409
20
0.12500000398928721
30
0
40
0.066000000000000211
210
0
220
0
230
1
0
LINE
5
162
100
AcDbEntity
8
0
100
AcDbLine
10
3.8018359937228641
20
2.2500000558500211
30
0
11
3.8018359937228641
21
1.9000000606371661
31
0
0
CIRCLE
5
163
100
AcDbEntity
8
0
100
AcDbCircle
10
3.8018359937228641
20
1.9000000606371661
30
0
40
0.060000000000000032
210
0
220
0
230
1
0
LINE
5
164
100
AcDbEntity
8
0
100
AcDbLine
10
3.8018359937228641
20
1.9000000606371661
30
0
11
2.6000000829771746
21
1.9000000606371661
31
0
0
CIRCLE
5
165
100
AcDbEntity
8
0
100
AcDbCircle
10
2.6000000829771746
20
1.9000000606371661
30
0
40
0.060000000000000032
210
0
220
0
230
1
0
LINE
5
166
100
AcDbEntity
8
0
100
AcDbLine
10
4.5000001436143409
20
0.41458445944406475
30
0
11
3.6230001436143406
21
0.41458445944406475
31
0
0
CIRCLE
5
167
100
AcDbEntity
8
0
100
AcDbCircle
10
3.6230001436143406
20
0.41458445944406475
30
0
40
0.060000000000000032
210
0
220
0
230
1
0
ENDSEC
0
SECTION
2
OBJECTS
0
DICTIONARY
5
C
100
AcDbDictionary
3
ACAD_GROUP
350
D
3
ACAD_MLINESTYLE
350
17
0
DICTIONARY
5
D
100
AcDbDictionary
0
DICTIONARY
5
1A
330
C
100
AcDbDictionary
0
DICTIONARY
5
17
100
AcDbDictionary
0
ENDSEC
0
EOF
