0
SECTION
2
HEADER
9
$INSUNITS
70
1
9
$ACADVER
1
AC1014
9
$HANDSEED
5
FFFF
0
ENDSEC
0
SECTION
2
TABLES
0
TABLE
2
VPORT
5
8
100
AcDbSymbolTable
0
ENDTAB
0
TABLE
2
LTYPE
5
5
100
AcDbSymbolTable
0
LTYPE
5
14
100
AcDbSymbolTableRecord
100
AcDbLinetypeTableRecord
2
BYBLOCK
70
0
0
LTYPE
5
15
100
AcDbSymbolTableRecord
100
AcDbLinetypeTableRecord
2
BYLAYER
70
0
0
ENDTAB
0
TABLE
2
LAYER
5
2
100
AcDbSymbolTable
70
2
0
LAYER
5
50
100
AcDbSymbolTableRecord
100
AcDbLayerTableRecord
2
0
70
0
6
CONTINUOUS
0
ENDTAB
0
TABLE
2
STYLE
5
3
100
AcDbSymbolTable
70
1
0
STYLE
5
11
100
AcDbSymbolTableRecord
100
AcDbTextStyleTableRecord
2
STANDARD
70
0
0
ENDTAB
0
TABLE
2
VIEW
5
6
100
AcDbSymbolTable
70
0
0
ENDTAB
0
TABLE
2
UCS
5
7
100
AcDbSymbolTable
70
0
0
ENDTAB
0
TABLE
2
APPID
5
9
100
AcDbSymbolTable
70
2
0
APPID
5
12
100
AcDbSymbolTableRecord
100
AcDbRegAppTableRecord
2
ACAD
70
0
0
ENDTAB
0
TABLE
2
DIMSTYLE
5
A
100
AcDbSymbolTable
70
1
0
ENDTAB
0
TABLE
2
BLOCK_RECORD
5
1
100
AcDbSymbolTable
70
1
0
BLOCK_RECORD
5
1F
100
AcDbSymbolTableRecord
100
AcDbBlockTableRecord
2
*MODEL_SPACE
0
BLOCK_RECORD
5
1B
100
AcDbSymbolTableRecord
100
AcDbBlockTableRecord
2
*PAPER_SPACE
0
ENDTAB
0
ENDSEC
0
SECTION
2
BLOCKS
0
BLOCK
5
20
100
AcDbEntity
100
AcDbBlockBegin
2
*MODEL_SPACE
0
ENDBLK
5
21
100
AcDbEntity
100
AcDbBlockEnd
0
BLOCK
5
1C
100
AcDbEntity
100
AcDbBlockBegin
2
*PAPER_SPACE
0
ENDBLK
5
1D
100
AcDbEntity
100
AcDbBlockEnd
0
ENDSEC
0
SECTION
2
ENTITIES
0
LINE
5
100
100
AcDbEntity
8
0
100
AcDbLine
10
0
20
0.24999999999999997
30
0
11
0.24999999999999997
21
0.24999999999999989
31
0
0
LINE
5
101
100
AcDbEntity
8
0
100
AcDbLine
10
0.24999999999999997
20
0.24999999999999989
30
0
11
0.24999999999999997
21
0.99999999999999989
31
0
0
LINE
5
102
100
AcDbEntity
8
0
100
AcDbLine
10
0.24999999999999997
20
0.99999999999999989
30
0
11
0
21
0.99999999999999989
31
0
0
LINE
5
103
100
AcDbEntity
8
0
100
AcDbLine
10
0
20
0.99999999999999989
30
0
11
0
21
1.5000000478714468
31
0
0
LINE
5
104
100
AcDbEntity
8
0
100
AcDbLine
10
0
20
1.5000000478714468
30
0
11
0.24999999999999997
21
1.5000000478714468
31
0
0
LINE
5
105
100
AcDbEntity
8
0
100
AcDbLine
10
0.24999999999999997
20
1.5000000478714468
30
0
11
0.24999999999999997
21
2.2500000478714468
31
0
0
LINE
5
106
100
AcDbEntity
8
0
100
AcDbLine
10
0.24999999999999997
20
2.2500000478714468
30
0
11
0
21
2.2500000478714468
31
0
0
LINE
5
107
100
AcDbEntity
8
0
100
AcDbLine
10
0
20
2.2500000478714468
30
0
11
0
21
2.4999998563856591
31
0
0
LINE
5
108
100
AcDbEntity
8
0
100
AcDbLine
10
0
20
2.4999998563856591
30
0
11
0.7500000239357234
21
2.4999998563856591
31
0
0
LINE
5
109
100
AcDbEntity
8
0
100
AcDbLine
10
0.7500000239357234
20
2.4999998563856591
30
0
11
0.7500000239357234
21
2.2500000478714468
31
0
0
LINE
5
110
100
AcDbEntity
8
0
100
AcDbLine
10
1.2500000239357232
20
2.2500000478714468
30
0
11
1.2500000239357232
21
2.4999998563856591
31
0
0
LINE
5
111
100
AcDbEntity
8
0
100
AcDbLine
10
1.2500000239357232
20
2.4999998563856591
30
0
11
2.0000000638285957
21
2.4999998563856591
31
0
0
LINE
5
112
100
AcDbEntity
8
0
100
AcDbLine
10
2.0000000638285957
20
2.4999998563856591
30
0
11
2.0000000638285957
21
2.2500000478714468
31
0
0
LINE
5
113
100
AcDbEntity
8
0
100
AcDbLine
10
2.5000000797857447
20
2.2500000478714468
30
0
11
2.5000000797857447
21
2.4999998563856591
31
0
0
LINE
5
114
100
AcDbEntity
8
0
100
AcDbLine
10
2.5000000797857447
20
2.4999998563856591
30
0
11
3.2500001037214683
21
2.4999998563856591
31
0
0
LINE
5
115
100
AcDbEntity
8
0
100
AcDbLine
10
3.2500001037214683
20
2.4999998563856591
30
0
11
3.2500001037214683
21
2.2500000478714468
31
0
0
LINE
5
116
100
AcDbEntity
8
0
100
AcDbLine
10
3.7500001196786172
20
2.2500000478714468
30
0
11
3.7500001196786172
21
2.4999998563856591
31
0
0
LINE
5
117
100
AcDbEntity
8
0
100
AcDbLine
10
3.7500001196786172
20
2.4999998563856591
30
0
11
4.5000001436143409
21
2.4999998563856591
31
0
0
LINE
5
118
100
AcDbEntity
8
0
100
AcDbLine
10
4.5000001436143409
20
2.4999998563856591
30
0
11
4.5000001436143409
21
2.2500000478714468
31
0
0
LINE
5
119
100
AcDbEntity
8
0
100
AcDbLine
10
4.5000001436143409
20
2.2500000478714468
30
0
11
4.2500001356357657
21
2.2500000478714468
31
0
0
LINE
5
120
100
AcDbEntity
8
0
100
AcDbLine
10
4.2500001356357657
20
2.2500000478714468
30
0
11
4.2500001356357657
21
1.5000000478714468
31
0
0
LINE
5
121
100
AcDbEntity
8
0
100
AcDbLine
10
4.2500001356357657
20
1.5000000478714468
30
0
11
4.5000001436143409
21
1.5000000478714468
31
0
0
LINE
5
122
100
AcDbEntity
8
0
100
AcDbLine
10
4.5000001436143409
20
1.5000000478714468
30
0
11
4.5000001436143409
21
1.0000000319142979
31
0
0
LINE
5
123
100
AcDbEntity
8
0
100
AcDbLine
10
4.5000001436143409
20
1.0000000319142979
30
0
11
4.2500001356357657
21
1.0000000319142979
31
0
0
LINE
5
124
100
AcDbEntity
8
0
100
AcDbLine
10
4.2500001356357657
20
1.0000000319142979
30
0
11
4.2500001351470784
21
0.24999999999999997
31
0
0
LINE
5
125
100
AcDbEntity
8
0
100
AcDbLine
10
4.2500001351470784
20
0.24999999999999997
30
0
11
4.5000001436143409
21
0.24999999999999997
31
0
0
LINE
5
126
100
AcDbEntity
8
0
100
AcDbLine
10
4.5000001436143409
20
0.24999999999999997
30
0
11
4.5000001436143409
21
0
31
0
0
LINE
5
127
100
AcDbEntity
8
0
100
AcDbLine
10
4.5000001436143409
20
0
30
0
11
3.7500000638285953
21
0
31
0
0
LINE
5
128
100
AcDbEntity
8
0
100
AcDbLine
10
3.7500000638285953
20
0
30
0
11
3.7500000638285953
21
0.24999999999999997
31
0
0
LINE
5
129
100
AcDbEntity
8
0
100
AcDbLine
10
3.2500000638285953
20
0.24999999999999997
30
0
11
3.2500000638285953
21
0
31
0
0
LINE
5
130
100
AcDbEntity
8
0
100
AcDbLine
10
3.2500000638285953
20
0
30
0
11
2.5000000638285957
21
0
31
0
0
LINE
5
131
100
AcDbEntity
8
0
100
AcDbLine
10
2.5000000638285957
20
0
30
0
11
2.5000000638285957
21
0.24999999999999997
31
0
0
LINE
5
132
100
AcDbEntity
8
0
100
AcDbLine
10
2.0000000638285957
20
0.24999999999999997
30
0
11
2.0000000638285957
21
0
31
0
0
LINE
5
133
100
AcDbEntity
8
0
100
AcDbLine
10
2.0000000638285957
20
0
30
0
11
1.2500000398928723
21
0
31
0
0
LINE
5
134
100
AcDbEntity
8
0
100
AcDbLine
10
1.2500000398928723
20
0
30
0
11
1.2500000398928723
21
0.24999999999999997
31
0
0
LINE
5
135
100
AcDbEntity
8
0
100
AcDbLine
10
0.7500000239357234
20
0.24999999999999997
30
0
11
0.7500000239357234
21
0
31
0
0
LINE
5
136
100
AcDbEntity
8
0
100
AcDbLine
10
0.7500000239357234
20
0
30
0
11
0
21
0
31
0
0
LINE
5
137
100
AcDbEntity
8
0
100
AcDbLine
10
0
20
0
30
0
11
0
21
0.24999999999999997
31
0
0
LINE
5
138
100
AcDbEntity
8
0
100
AcDbLine
10
3.5700000638285951
20
0.24999999972074988
30
0
11
3.5700000643472025
21
0.37999999972074983
31
0
0
LINE
5
139
100
AcDbEntity
8
0
100
AcDbLine
10
3.5700000643472025
20
0.37999999972074983
30
0
11
3.6600000643472024
21
0.37999999936171391
31
0
0
LINE
5
140
100
AcDbEntity
8
0
100
AcDbLine
10
3.6600000643472024
20
0.37999999936171391
30
0
11
3.6600000647860242
21
0.4899999993617139
31
0
0
LINE
5
141
100
AcDbEntity
8
0
100
AcDbLine
10
3.6600000647860242
20
0.4899999993617139
30
0
11
3.3400000647860244
21
0.49000000063828614
31
0
0
LINE
5
142
100
AcDbEntity
8
0
100
AcDbLine
10
3.3400000647860244
20
0.49000000063828614
30
0
11
3.3400000643472025
21
0.37999999954123187
31
0
0
LINE
5
143
100
AcDbEntity
8
0
100
AcDbLine
10
3.3400000643472025
20
0.37999999954123187
30
0
11
3.4300000643472028
21
0.37999999918219601
31
0
0
LINE
5
144
100
AcDbEntity
8
0
100
AcDbLine
10
3.4300000643472028
20
0.37999999918219601
30
0
11
3.4300000638283499
21
0.24993847414173848
31
0
0
LINE
5
145
100
AcDbEntity
8
0
100
AcDbLine
10
3.7500000638285953
20
0.24999999999999997
30
0
11
3.5700000638285951
21
0.24999999972074988
31
0
0
LINE
5
146
100
AcDbEntity
8
0
100
AcDbLine
10
3.4300000638285955
20
0.24999999999999997
30
0
11
3.2500000638285953
21
0.24999999999999997
31
0
0
LINE
5
147
100
AcDbEntity
8
0
100
AcDbLine
10
2.320000063828596
20
0.24999999972074988
30
0
11
2.320000063828596
21
0.37999999972074988
31
0
0
LINE
5
148
100
AcDbEntity
8
0
100
AcDbLine
10
2.320000063828596
20
0.37999999972074988
30
0
11
2.4100000638285959
21
0.37999999972074988
31
0
0
LINE
5
149
100
AcDbEntity
8
0
100
AcDbLine
10
2.4100000638285959
20
0.37999999972074988
30
0
11
2.4100000638285959
21
0.48999999972074992
31
0
0
LINE
5
150
100
AcDbEntity
8
0
100
AcDbLine
10
2.4100000638285959
20
0.48999999972074992
30
0
11
2.2500000638285957
21
0.48999999972074992
31
0
0
LINE
5
151
100
AcDbEntity
8
0
100
AcDbLine
10
2.320000063828596
20
2.1200000800649952
30
0
11
2.4100000638285959
21
2.1200000800649952
31
0
0
LINE
5
152
100
AcDbEntity
8
0
100
AcDbLine
10
2.4100000638285959
20
2.1200000800649952
30
0
11
2.4100000638285959
21
2.0100000800649949
31
0
0
LINE
5
153
100
AcDbEntity
8
0
100
AcDbLine
10
2.4100000638285959
20
2.0100000800649949
30
0
11
2.2500000638285957
21
2.0100000800649949
31
0
0
LINE
5
154
100
AcDbEntity
8
0
100
AcDbLine
10
2.320000063828596
20
2.2500000800649946
30
0
11
2.320000063828596
21
2.1200000800649952
31
0
0
LINE
5
155
100
AcDbEntity
8
0
100
AcDbLine
10
3.5700000638285951
20
2.2500000800649946
30
0
11
3.5700000643472025
21
2.1200000800649952
31
0
0
LINE
5
156
100
AcDbEntity
8
0
100
AcDbLine
10
3.5700000643472025
20
2.1200000800649952
30
0
11
3.6600000643472024
21
2.1200000804240307
31
0
0
LINE
5
157
100
AcDbEntity
8
0
100
AcDbLine
10
3.6600000643472024
20
2.1200000804240307
30
0
11
3.6600000647860242
21
2.0100000804240312
31
0
0
LINE
5
158
100
AcDbEntity
8
0
100
AcDbLine
10
3.6600000647860242
20
2.0100000804240312
30
0
11
3.3400000647860244
21
2.0100000791474586
31
0
0
LINE
5
159
100
AcDbEntity
8
0
100
AcDbLine
10
3.3400000647860244
20
2.0100000791474586
30
0
11
3.3400000643472025
21
2.1200000802445129
31
0
0
LINE
5
160
100
AcDbEntity
8
0
100
AcDbLine
10
3.3400000643472025
20
2.1200000802445129
30
0
11
3.4300000643472028
21
2.1200000806035488
31
0
0
LINE
5
161
100
AcDbEntity
8
0
100
AcDbLine
10
3.4300000643472028
20
2.1200000806035488
30
0
11
3.4300000638283499
21
2.2500616056440066
31
0
0
LINE
5
162
100
AcDbEntity
8
0
100
AcDbLine
10
2.1800000648658102
20
0.38000000027925002
30
0
11
2.0900000648658104
21
0.38000000099732162
31
0
0
LINE
5
163
100
AcDbEntity
8
0
100
AcDbLine
10
2.0900000648658104
20
0.38000000099732162
30
0
11
2.0900000657434532
21
0.49000000099732194
31
0
0
LINE
5
164
100
AcDbEntity
8
0
100
AcDbLine
10
2.0900000657434532
20
0.49000000099732194
30
0
11
2.2500000657434533
21
0.48999999972075009
31
0
0
LINE
5
165
100
AcDbEntity
8
0
100
AcDbLine
10
2.1800000638285955
20
0.25000000027925018
30
0
11
2.1800000648658102
21
0.38000000027925002
31
0
0
LINE
5
166
100
AcDbEntity
8
0
100
AcDbLine
10
1.1600000647860247
20
0.49000000933493215
30
0
11
1.1600000643472035
21
0.380000008237878
31
0
0
LINE
5
167
100
AcDbEntity
8
0
100
AcDbLine
10
1.1600000643472035
20
0.380000008237878
30
0
11
1.0700000643472034
21
0.38000000859691396
31
0
0
LINE
5
168
100
AcDbEntity
8
0
100
AcDbLine
10
1.0700000643472034
20
0.38000000859691396
30
0
11
1.0700000638283507
21
0.2499384835564562
31
0
0
LINE
5
169
100
AcDbEntity
8
0
100
AcDbLine
10
0.84000006434720376
20
0.38000001061150368
30
0
11
0.84000006478602507
21
0.490000010611504
31
0
0
LINE
5
170
100
AcDbEntity
8
0
100
AcDbLine
10
0.84000006478602507
20
0.490000010611504
30
0
11
1.1600000647860247
21
0.49000000933493215
31
0
0
LINE
5
171
100
AcDbEntity
8
0
100
AcDbLine
10
0.93000006434720384
20
0.38000001025246805
30
0
11
0.84000006434720376
21
0.38000001061150368
31
0
0
LINE
5
172
100
AcDbEntity
8
0
100
AcDbLine
10
0.93000006382859646
20
0.25000001025246826
30
0
11
0.93000006434720384
21
0.38000001025246805
31
0
0
LINE
5
173
100
AcDbEntity
8
0
100
AcDbLine
10
0.93000007822992381
20
2.1200000905967133
30
0
11
0.84000007822992373
21
2.1200000916738206
31
0
0
LINE
5
174
100
AcDbEntity
8
0
100
AcDbLine
10
0.84000007822992373
20
2.1200000916738206
30
0
11
0.84000007691345902
21
2.0100000916738208
31
0
0
LINE
5
175
100
AcDbEntity
8
0
100
AcDbLine
10
1.1600000769134584
20
2.0100000878441042
30
0
11
1.1600000782299233
21
2.120000088941159
31
0
0
LINE
5
176
100
AcDbEntity
8
0
100
AcDbLine
10
1.0700000782299235
20
2.1200000900182667
30
0
11
1.0700000797864819
21
2.250061615058724
31
0
0
LINE
5
177
100
AcDbEntity
8
0
100
AcDbLine
10
1.1600000782299233
20
2.120000088941159
30
0
11
1.0700000782299235
21
2.1200000900182667
31
0
0
LINE
5
178
100
AcDbEntity
8
0
100
AcDbLine
10
0.93000007978574595
20
2.2500000905967132
30
0
11
0.93000007822992381
21
2.1200000905967133
31
0
0
LINE
5
179
100
AcDbEntity
8
0
100
AcDbLine
10
0.84000007691345902
20
2.0100000916738208
30
0
11
1.1600000769134584
21
2.0100000878441042
31
0
0
LINE
5
180
100
AcDbEntity
8
0
100
AcDbLine
10
2.0900000778708869
20
2.010000081341567
30
0
11
2.2500000778708875
21
2.0100000800649949
31
0
0
LINE
5
181
100
AcDbEntity
8
0
100
AcDbLine
10
2.1800000787485305
20
2.1200000806234951
30
0
11
2.0900000787485302
21
2.1200000813415669
31
0
0
LINE
5
182
100
AcDbEntity
8
0
100
AcDbLine
10
2.0900000787485302
20
2.1200000813415669
30
0
11
2.0900000778708869
21
2.010000081341567
31
0
0
LINE
5
183
100
AcDbEntity
8
0
100
AcDbLine
10
2.1800000797857453
20
2.250000080623495
30
0
11
2.1800000787485305
21
2.1200000806234951
31
0
0
LINE
5
184
100
AcDbEntity
8
0
100
AcDbLine
10
3.2500001037214683
20
2.2500000478714468
30
0
11
3.4300000638285955
21
2.2500000478714468
31
0
0
LINE
5
185
100
AcDbEntity
8
0
100
AcDbLine
10
3.5700000638285951
20
2.2500000800649946
30
0
11
3.7500001196786172
21
2.2500000478714468
31
0
0
LINE
5
186
100
AcDbEntity
8
0
100
AcDbLine
10
2.0000000638285957
20
2.2500000478714468
30
0
11
2.1800000797857453
21
2.250000080623495
31
0
0
LINE
5
187
100
AcDbEntity
8
0
100
AcDbLine
10
2.320000063828596
20
2.2500000800649946
30
0
11
2.5000000797857447
21
2.2500000478714468
31
0
0
LINE
5
188
100
AcDbEntity
8
0
100
AcDbLine
10
0.7500000239357234
20
2.2500000478714468
30
0
11
0.93000007978574595
21
2.2500000905967132
31
0
0
LINE
5
189
100
AcDbEntity
8
0
100
AcDbLine
10
1.0700000797857452
20
2.2500000478714468
30
0
11
1.2500000239357232
21
2.2500000478714468
31
0
0
LINE
5
190
100
AcDbEntity
8
0
100
AcDbLine
10
1.2500000398928723
20
0.24999999999999997
30
0
11
1.070000063828596
21
0.24999999999999997
31
0
0
LINE
5
191
100
AcDbEntity
8
0
100
AcDbLine
10
0.93000006382859646
20
0.25000001025246826
30
0
11
0.7500000239357234
21
0.24999999999999997
31
0
0
LINE
5
192
100
AcDbEntity
8
0
100
AcDbLine
10
2.5000000638285957
20
0.24999999999999997
30
0
11
2.320000063828596
21
0.24999999972074988
31
0
0
LINE
5
193
100
AcDbEntity
8
0
100
AcDbLine
10
2.1800000638285955
20
0.25000000027925018
30
0
11
2.0000000638285957
21
0.24999999999999997
31
0
0
LWPOLYLINE
5
194
100
AcDbEntity
8
0
100
AcDbPolyline
90
4
70
1
43
0.0
10
3.7500000647860241
20
1.3750000798827229
10
3.2500000647860245
20
1.3750000798827229
10
3.2500000647860245
20
1.1250000798827229
10
3.7500000647860241
20
1.1250000798827229
0
LWPOLYLINE
5
195
100
AcDbEntity
8
0
100
AcDbPolyline
90
4
70
1
43
0.0
10
2.4999999718325525
20
1.3750000798827229
10
2.0000001717817879
20
1.3750000798827229
10
2.0000001717817879
20
1.1250001798573404
10
2.4999999718325525
20
1.1250001798573404
0
LWPOLYLINE
5
196
100
AcDbEntity
8
0
100
AcDbPolyline
90
4
70
1
43
0.0
10
1.2499998769642238
20
1.3750000798827229
10
0.75000027686269377
20
1.3750000798827229
10
0.75000027686269377
20
1.125000279831958
10
1.2499998769642238
20
1.125000279831958
0
ENDSEC
0
SECTION
2
OBJECTS
0
DICTIONARY
5
C
100
AcDbDictionary
3
ACAD_GROUP
350
D
3
ACAD_MLINESTYLE
350
17
0
DICTIONARY
5
D
100
AcDbDictionary
0
DICTIONARY
5
1A
330
C
100
AcDbDictionary
0
DICTIONARY
5
17
100
AcDbDictionary
0
ENDSEC
0
EOF
