0
SECTION
2
HEADER
9
$INSUNITS
70
1
9
$ACADVER
1
AC1014
9
$HANDSEED
5
FFFF
0
ENDSEC
0
SECTION
2
TABLES
0
TABLE
2
VPORT
5
8
100
AcDbSymbolTable
0
ENDTAB
0
TABLE
2
LTYPE
5
5
100
AcDbSymbolTable
0
LTYPE
5
14
100
AcDbSymbolTableRecord
100
AcDbLinetypeTableRecord
2
BYBLOCK
70
0
0
LTYPE
5
15
100
AcDbSymbolTableRecord
100
AcDbLinetypeTableRecord
2
BYLAYER
70
0
0
ENDTAB
0
TABLE
2
LAYER
5
2
100
AcDbSymbolTable
70
2
0
LAYER
5
50
100
AcDbSymbolTableRecord
100
AcDbLayerTableRecord
2
0
70
0
6
CONTINUOUS
0
ENDTAB
0
TABLE
2
STYLE
5
3
100
AcDbSymbolTable
70
1
0
STYLE
5
11
100
AcDbSymbolTableRecord
100
AcDbTextStyleTableRecord
2
STANDARD
70
0
0
ENDTAB
0
TABLE
2
VIEW
5
6
100
AcDbSymbolTable
70
0
0
ENDTAB
0
TABLE
2
UCS
5
7
100
AcDbSymbolTable
70
0
0
ENDTAB
0
TABLE
2
APPID
5
9
100
AcDbSymbolTable
70
2
0
APPID
5
12
100
AcDbSymbolTableRecord
100
AcDbRegAppTableRecord
2
ACAD
70
0
0
ENDTAB
0
TABLE
2
DIMSTYLE
5
A
100
AcDbSymbolTable
70
1
0
ENDTAB
0
TABLE
2
BLOCK_RECORD
5
1
100
AcDbSymbolTable
70
1
0
BLOCK_RECORD
5
1F
100
AcDbSymbolTableRecord
100
AcDbBlockTableRecord
2
*MODEL_SPACE
0
BLOCK_RECORD
5
1B
100
AcDbSymbolTableRecord
100
AcDbBlockTableRecord
2
*PAPER_SPACE
0
ENDTAB
0
ENDSEC
0
SECTION
2
BLOCKS
0
BLOCK
5
20
100
AcDbEntity
100
AcDbBlockBegin
2
*MODEL_SPACE
0
ENDBLK
5
21
100
AcDbEntity
100
AcDbBlockEnd
0
BLOCK
5
1C
100
AcDbEntity
100
AcDbBlockBegin
2
*PAPER_SPACE
0
ENDBLK
5
1D
100
AcDbEntity
100
AcDbBlockEnd
0
ENDSEC
0
SECTION
2
ENTITIES
0
LINE
5
100
100
AcDbEntity
8
0
100
AcDbLine
10
-2.2500000718071704
20
-0.37500013916445268
30
0
11
-2.2500000718071704
21
0.37499986083554698
31
0
0
LINE
5
101
100
AcDbEntity
8
0
100
AcDbLine
10
-2.2500000718071704
20
0.37499986083554698
30
0
11
-2.0000000718071704
21
0.37499986083554698
31
0
0
LINE
5
102
100
AcDbEntity
8
0
100
AcDbLine
10
-2.0000000718071704
20
0.37499986083554698
30
0
11
-2.0000000718071704
21
1.0000000398928726
31
0
0
LINE
5
103
100
AcDbEntity
8
0
100
AcDbLine
10
-2.0000000718071704
20
1.0000000398928726
30
0
11
-1.5000000478714468
21
1.0000000398928726
31
0
0
LINE
5
104
100
AcDbEntity
8
0
100
AcDbLine
10
-1.5000000478714468
20
1.0000000398928726
30
0
11
-1.5000000478714468
21
1.2500000398928723
31
0
0
LINE
5
105
100
AcDbEntity
8
0
100
AcDbLine
10
-1.5000000478714468
20
1.2500000398928723
30
0
11
-1.000000047871447
21
1.2500000398928723
31
0
0
LINE
5
106
100
AcDbEntity
8
0
100
AcDbLine
10
-1.000000047871447
20
1.2500000398928723
30
0
11
-1.000000047871447
21
1.0000000398928726
31
0
0
LINE
5
107
100
AcDbEntity
8
0
100
AcDbLine
10
-1.000000047871447
20
1.0000000398928726
30
0
11
-0.25000000797857447
21
1.0000000398928726
31
0
0
LINE
5
108
100
AcDbEntity
8
0
100
AcDbLine
10
-0.25000000797857447
20
1.0000000398928726
30
0
11
-0.25000000797857447
21
1.2500000398928723
31
0
0
LINE
5
109
100
AcDbEntity
8
0
100
AcDbLine
10
-0.25000000797857447
20
1.2500000398928723
30
0
11
0.25000000797857447
21
1.2500000398928723
31
0
0
LINE
5
110
100
AcDbEntity
8
0
100
AcDbLine
10
0.25000000797857447
20
1.2500000398928723
30
0
11
0.25000000797857447
21
1.0000000398928726
31
0
0
LINE
5
111
100
AcDbEntity
8
0
100
AcDbLine
10
0.25000000797857447
20
1.0000000398928726
30
0
11
1.0000000319142979
21
1.0000000398928726
31
0
0
LINE
5
112
100
AcDbEntity
8
0
100
AcDbLine
10
1.0000000319142979
20
1.0000000398928726
30
0
11
1.0000000319142979
21
1.2500000398928723
31
0
0
LINE
5
113
100
AcDbEntity
8
0
100
AcDbLine
10
1.0000000319142979
20
1.2500000398928723
30
0
11
1.5000000478714468
21
1.2500000398928723
31
0
0
LINE
5
114
100
AcDbEntity
8
0
100
AcDbLine
10
1.5000000478714468
20
1.2500000398928723
30
0
11
1.5000000478714468
21
1.0000000398928726
31
0
0
LINE
5
115
100
AcDbEntity
8
0
100
AcDbLine
10
1.5000000478714468
20
1.0000000398928726
30
0
11
2.0000000638285957
21
1.0000000398928726
31
0
0
LINE
5
116
100
AcDbEntity
8
0
100
AcDbLine
10
2.0000000638285957
20
1.0000000398928726
30
0
11
2.0000000639706559
21
0.37499986083554698
31
0
0
LINE
5
117
100
AcDbEntity
8
0
100
AcDbLine
10
2.0000000639706559
20
0.37499986083554698
30
0
11
2.2500000639706559
21
0.37499986089237108
31
0
0
LINE
5
118
100
AcDbEntity
8
0
100
AcDbLine
10
2.2500000639706559
20
0.37499986089237108
30
0
11
2.2500000641411284
21
-0.37500013916445268
31
0
0
LINE
5
119
100
AcDbEntity
8
0
100
AcDbLine
10
2.2500000641411284
20
-0.37500013916445268
30
0
11
2.0000000638285957
21
-0.37500013916445268
31
0
0
LINE
5
120
100
AcDbEntity
8
0
100
AcDbLine
10
2.0000000638285957
20
-0.37500013916445268
30
0
11
2.0000000638285957
21
-0.99999996010712733
31
0
0
LINE
5
121
100
AcDbEntity
8
0
100
AcDbLine
10
2.0000000638285957
20
-0.99999996010712733
30
0
11
1.5000000478714468
21
-0.99999996010712733
31
0
0
LINE
5
122
100
AcDbEntity
8
0
100
AcDbLine
10
1.5000000478714468
20
-0.99999996010712733
30
0
11
1.5000000478714468
21
-1.2499999601071272
31
0
0
LINE
5
123
100
AcDbEntity
8
0
100
AcDbLine
10
1.5000000478714468
20
-1.2499999601071272
30
0
11
1.0000000319142979
21
-1.2499999601071272
31
0
0
LINE
5
124
100
AcDbEntity
8
0
100
AcDbLine
10
1.0000000319142979
20
-1.2499999601071272
30
0
11
1.0000000319142979
21
-0.99999996010712733
31
0
0
LINE
5
125
100
AcDbEntity
8
0
100
AcDbLine
10
1.0000000319142979
20
-0.99999996010712733
30
0
11
0.25000000797857447
21
-0.99999996010712733
31
0
0
LINE
5
126
100
AcDbEntity
8
0
100
AcDbLine
10
0.25000000797857447
20
-0.99999996010712733
30
0
11
0.25000000797857447
21
-1.2499999601071272
31
0
0
LINE
5
127
100
AcDbEntity
8
0
100
AcDbLine
10
0.25000000797857447
20
-1.2499999601071272
30
0
11
-0.25000000797857447
21
-1.2499999601071272
31
0
0
LINE
5
128
100
AcDbEntity
8
0
100
AcDbLine
10
-0.25000000797857447
20
-1.2499999601071272
30
0
11
-0.25000000797857447
21
-0.99999996010712733
31
0
0
LINE
5
129
100
AcDbEntity
8
0
100
AcDbLine
10
-0.25000000797857447
20
-0.99999996010712733
30
0
11
-1.000000047871447
21
-0.99999996010712733
31
0
0
LINE
5
130
100
AcDbEntity
8
0
100
AcDbLine
10
-1.000000047871447
20
-0.99999996010712733
30
0
11
-1.000000047871447
21
-1.2499999601071272
31
0
0
LINE
5
131
100
AcDbEntity
8
0
100
AcDbLine
10
-1.000000047871447
20
-1.2499999601071272
30
0
11
-1.5000000478714468
21
-1.2499999601071272
31
0
0
LINE
5
132
100
AcDbEntity
8
0
100
AcDbLine
10
-1.5000000478714468
20
-1.2499999601071272
30
0
11
-1.5000000478714468
21
-0.99999996010712733
31
0
0
LINE
5
133
100
AcDbEntity
8
0
100
AcDbLine
10
-1.5000000478714468
20
-0.99999996010712733
30
0
11
-2.0000000718071704
21
-0.99999996010712733
31
0
0
LINE
5
134
100
AcDbEntity
8
0
100
AcDbLine
10
-2.0000000718071704
20
-0.99999996010712733
30
0
11
-2.0000000718071704
21
-0.37500013916445268
31
0
0
LINE
5
135
100
AcDbEntity
8
0
100
AcDbLine
10
-2.0000000718071704
20
-0.37500013916445268
30
0
11
-2.2500000718071704
21
-0.37500013916445268
31
0
0
LINE
5
136
100
AcDbEntity
8
0
100
AcDbLine
10
1.4999999999999998
20
0.19999999999999998
30
0
11
-1.4999999999999998
21
0.19999999999999998
31
0
0
LINE
5
137
100
AcDbEntity
8
0
100
AcDbLine
10
-1.4999999999999998
20
0.19999999999999998
30
0
11
-1.4999999999999998
21
-0.19999999999999998
31
0
0
LINE
5
138
100
AcDbEntity
8
0
100
AcDbLine
10
-1.4999999999999998
20
-0.19999999999999998
30
0
11
1.4999999999999998
21
-0.19999999999999998
31
0
0
LINE
5
139
100
AcDbEntity
8
0
100
AcDbLine
10
1.4999999999999998
20
-0.19999999999999998
30
0
11
1.4999999999999998
21
0.19999999999999998
31
0
0
LINE
5
140
100
AcDbEntity
8
0
100
AcDbLine
10
1.4999999999999998
20
0.19999999999999998
30
0
11
-1.4999999999999998
21
-0.19999999999999998
31
0
0
LINE
5
141
100
AcDbEntity
8
0
100
AcDbLine
10
-1.4999999999999998
20
0.19999999999999998
30
0
11
1.4999999999999998
21
-0.19999999999999998
31
0
0
LINE
5
142
100
AcDbEntity
8
0
100
AcDbLine
10
-1.4999999999999998
20
-0.19999999999999998
30
0
11
-1.0499999999999998
21
-0.19999999999999998
31
0
0
LINE
5
143
100
AcDbEntity
8
0
100
AcDbLine
10
-1.0499999999999998
20
-0.19999999999999998
30
0
11
-1.0499999999999998
21
-0.30000000957428935
31
0
0
LINE
5
144
100
AcDbEntity
8
0
100
AcDbLine
10
-1.4999999999999998
20
-0.19999999999999998
30
0
11
1.0000000319142979
21
-0.19999999999999998
31
0
0
LINE
5
145
100
AcDbEntity
8
0
100
AcDbLine
10
1.0000000319142979
20
-0.19999999999999998
30
0
11
1.0000000319142979
21
-0.30000000957428935
31
0
0
CIRCLE
5
146
100
AcDbEntity
8
0
100
AcDbCircle
10
1.0000000319142979
20
-0.30000000957428935
30
0
40
0.10000000319142979
210
0
220
0
230
1
0
CIRCLE
5
147
100
AcDbEntity
8
0
100
AcDbCircle
10
-1.0499999999999998
20
-0.30000000957428935
30
0
40
0.099999999999999992
210
0
220
0
230
1
0
CIRCLE
5
148
100
AcDbEntity
8
0
100
AcDbCircle
10
1.0000000319142979
20
0.30000000957428935
30
0
40
0.10000000957428938
210
0
220
0
230
1
0
CIRCLE
5
149
100
AcDbEntity
8
0
100
AcDbCircle
10
-1.0500000335100128
20
0.30000000957428935
30
0
40
0.10000000957428938
210
0
220
0
230
1
0
LINE
5
150
100
AcDbEntity
8
0
100
AcDbLine
10
-1.8699998527055322
20
-0.070000398928064658
30
0
11
-1.8699998968941167
21
-0.16000039892805387
31
0
0
LINE
5
151
100
AcDbEntity
8
0
100
AcDbLine
10
-1.8699998527055322
20
-0.070000398928064658
30
0
11
-1.8699999140785664
21
-0.19500039892804816
31
0
0
LINE
5
152
100
AcDbEntity
8
0
100
AcDbLine
10
-1.8699999140785664
20
-0.19500039892804816
30
0
11
-1.7199999140785844
21
-0.19500047257568906
31
0
0
LINE
5
153
100
AcDbEntity
8
0
100
AcDbLine
10
-1.7199999140785844
20
-0.19500047257568906
30
0
11
-1.7199997225947179
21
0.19499952742426382
31
0
0
LINE
5
154
100
AcDbEntity
8
0
100
AcDbLine
10
-1.7199997225947179
20
0.19499952742426382
30
0
11
-1.8699997225946998
21
0.19499960107190475
31
0
0
LINE
5
155
100
AcDbEntity
8
0
100
AcDbLine
10
-1.8699997225946998
20
0.19499960107190475
30
0
11
-1.8699998527055322
21
-0.070000398928064658
31
0
0
ENDSEC
0
SECTION
2
OBJECTS
0
DICTIONARY
5
C
100
AcDbDictionary
3
ACAD_GROUP
350
D
3
ACAD_MLINESTYLE
350
17
0
DICTIONARY
5
D
100
AcDbDictionary
0
DICTIONARY
5
1A
330
C
100
AcDbDictionary
0
DICTIONARY
5
17
100
AcDbDictionary
0
ENDSEC
0
EOF
