0
SECTION
2
HEADER
9
$INSUNITS
70
1
9
$ACADVER
1
AC1014
9
$HANDSEED
5
FFFF
0
ENDSEC
0
SECTION
2
TABLES
0
TABLE
2
VPORT
5
8
100
AcDbSymbolTable
0
ENDTAB
0
TABLE
2
LTYPE
5
5
100
AcDbSymbolTable
0
LTYPE
5
14
100
AcDbSymbolTableRecord
100
AcDbLinetypeTableRecord
2
BYBLOCK
70
0
0
LTYPE
5
15
100
AcDbSymbolTableRecord
100
AcDbLinetypeTableRecord
2
BYLAYER
70
0
0
ENDTAB
0
TABLE
2
LAYER
5
2
100
AcDbSymbolTable
70
2
0
LAYER
5
50
100
AcDbSymbolTableRecord
100
AcDbLayerTableRecord
2
0
70
0
6
CONTINUOUS
0
ENDTAB
0
TABLE
2
STYLE
5
3
100
AcDbSymbolTable
70
1
0
STYLE
5
11
100
AcDbSymbolTableRecord
100
AcDbTextStyleTableRecord
2
STANDARD
70
0
0
ENDTAB
0
TABLE
2
VIEW
5
6
100
AcDbSymbolTable
70
0
0
ENDTAB
0
TABLE
2
UCS
5
7
100
AcDbSymbolTable
70
0
0
ENDTAB
0
TABLE
2
APPID
5
9
100
AcDbSymbolTable
70
2
0
APPID
5
12
100
AcDbSymbolTableRecord
100
AcDbRegAppTableRecord
2
ACAD
70
0
0
ENDTAB
0
TABLE
2
DIMSTYLE
5
A
100
AcDbSymbolTable
70
1
0
ENDTAB
0
TABLE
2
BLOCK_RECORD
5
1
100
AcDbSymbolTable
70
1
0
BLOCK_RECORD
5
1F
100
AcDbSymbolTableRecord
100
AcDbBlockTableRecord
2
*MODEL_SPACE
0
BLOCK_RECORD
5
1B
100
AcDbSymbolTableRecord
100
AcDbBlockTableRecord
2
*PAPER_SPACE
0
ENDTAB
0
ENDSEC
0
SECTION
2
BLOCKS
0
BLOCK
5
20
100
AcDbEntity
100
AcDbBlockBegin
2
*MODEL_SPACE
0
ENDBLK
5
21
100
AcDbEntity
100
AcDbBlockEnd
0
BLOCK
5
1C
100
AcDbEntity
100
AcDbBlockBegin
2
*PAPER_SPACE
0
ENDBLK
5
1D
100
AcDbEntity
100
AcDbBlockEnd
0
ENDSEC
0
SECTION
2
ENTITIES
0
LINE
5
100
100
AcDbEntity
8
0
100
AcDbLine
10
0.75
20
0.24999999999999997
30
0
11
0.25000000797857447
21
0.24999999999999997
31
0
0
LINE
5
101
100
AcDbEntity
8
0
100
AcDbLine
10
0
20
0.24999999999999997
30
0
11
0.75000005585002139
21
0.24999999999999997
31
0
0
LINE
5
102
100
AcDbEntity
8
0
100
AcDbLine
10
0.75
20
0.24999999999999997
30
0
11
0.75000005585002139
21
0
31
0
0
LINE
5
103
100
AcDbEntity
8
0
100
AcDbLine
10
0.75000005585002139
20
0
30
0
11
1.7500000558500213
21
0
31
0
0
LINE
5
104
100
AcDbEntity
8
0
100
AcDbLine
10
1.7500000558500213
20
0
30
0
11
1.7500000558500213
21
0.24999999999999997
31
0
0
LINE
5
105
100
AcDbEntity
8
0
100
AcDbLine
10
1.7500000558500213
20
0.24999999999999997
30
0
11
2.5000000797857447
21
0.24999999999999997
31
0
0
LINE
5
106
100
AcDbEntity
8
0
100
AcDbLine
10
2.5000000797857447
20
0.24999999999999997
30
0
11
2.5000000797857447
21
0.99999999999999989
31
0
0
LINE
5
107
100
AcDbEntity
8
0
100
AcDbLine
10
2.5000000797857447
20
0.99999999999999989
30
0
11
2.2500000718071704
21
0.99999999999999989
31
0
0
LINE
5
108
100
AcDbEntity
8
0
100
AcDbLine
10
2.2500000718071704
20
1.5000000478714468
30
0
11
2.5000000797857447
21
1.5000000478714468
31
0
0
LINE
5
109
100
AcDbEntity
8
0
100
AcDbLine
10
2.5000000797857447
20
1.5000000478714468
30
0
11
2.5000000797857447
21
2.2500000478714468
31
0
0
LINE
5
110
100
AcDbEntity
8
0
100
AcDbLine
10
2.5000000797857447
20
2.2500000478714468
30
0
11
1.7500000558500213
21
2.2500000478714468
31
0
0
LINE
5
111
100
AcDbEntity
8
0
100
AcDbLine
10
1.7500000558500213
20
2.2500000478714468
30
0
11
1.7500000558500213
21
2.5000000797857447
31
0
0
LINE
5
112
100
AcDbEntity
8
0
100
AcDbLine
10
1.7500000558500213
20
2.5000000797857447
30
0
11
0.75000005585002139
21
2.4999998563856591
31
0
0
LINE
5
113
100
AcDbEntity
8
0
100
AcDbLine
10
0.75000005585002139
20
2.4999998563856591
30
0
11
0.75000011169999992
21
2.2500000478714468
31
0
0
LINE
5
114
100
AcDbEntity
8
0
100
AcDbLine
10
0.75000011169999992
20
2.2500000478714468
30
0
11
1.1170001861343079e-07
21
2.2499998803213828
31
0
0
LINE
5
115
100
AcDbEntity
8
0
100
AcDbLine
10
1.1170001861343079e-07
20
2.2499998803213828
30
0
11
2.7925008272509916e-07
21
1.4999998803214016
31
0
0
LINE
5
116
100
AcDbEntity
8
0
100
AcDbLine
10
2.7925008272509916e-07
20
1.4999998803214016
30
0
11
0.25047285387102758
21
1.4999999362769962
31
0
0
LINE
5
117
100
AcDbEntity
8
0
100
AcDbLine
10
0.25047296557107052
20
0.99999993627700878
30
0
11
2.7925008272509921e-07
21
0.99999988032138909
31
0
0
LINE
5
118
100
AcDbEntity
8
0
100
AcDbLine
10
2.7925008272509921e-07
20
0.99999988032138909
30
0
11
0
21
0.24999999999999997
31
0
0
LINE
5
119
100
AcDbEntity
8
0
100
AcDbLine
10
1.2500000558500213
20
0
30
0
11
1.2500004928292152
21
0.24999999999999997
31
0
0
CIRCLE
5
120
100
AcDbEntity
8
0
100
AcDbCircle
10
1.2500002743396181
20
0.12499999999999999
30
0
40
0.066000000000000003
210
0
220
0
230
1
0
CIRCLE
5
121
100
AcDbEntity
8
0
100
AcDbCircle
10
1.250000083775032
20
2.3749999680857052
30
0
40
0.066000000000000003
210
0
220
0
230
1
0
LINE
5
122
100
AcDbEntity
8
0
100
AcDbLine
10
0.25000059839316136
20
1.24999957713567
30
0
11
0.25000059839316136
21
1.24999957713567
31
0
0
LINE
5
123
100
AcDbEntity
8
0
100
AcDbLine
10
0.25000059839298883
20
1.2500035141435442
30
0
11
0.25000059839316136
21
1.24999957713567
31
0
0
LINE
5
124
100
AcDbEntity
8
0
100
AcDbLine
10
2.2500000718071704
20
0.99999999999999989
30
0
11
2.2500000779447284
21
1.180000063823903
31
0
0
LINE
5
125
100
AcDbEntity
8
0
100
AcDbLine
10
2.2500000718071704
20
1.3199999840475443
30
0
11
2.2500000718071704
21
1.5000000478714468
31
0
0
LINE
5
126
100
AcDbEntity
8
0
100
AcDbLine
10
0.25047285387102758
20
1.4999999362769962
30
0
11
0.25047289408313217
21
1.3199995374585196
31
0
0
LINE
5
127
100
AcDbEntity
8
0
100
AcDbLine
10
0.25047292535896593
20
1.1800003350954753
30
0
11
0.25047296557107052
21
0.99999993627700878
31
0
0
LWPOLYLINE
5
128
100
AcDbEntity
8
0
100
AcDbPolyline
90
4
70
1
43
0.0
10
0.87500017905732541
20
1.3749999840428526
10
1.625000179057325
20
1.3749999840428526
10
1.625000179057325
20
1.1249999840428524
10
0.87500017905732541
20
1.1249999840428524
0
LINE
5
129
100
AcDbEntity
8
0
100
AcDbLine
10
2.2500000718071704
20
1.3199999840475443
30
0
11
2.2500000779447284
21
1.180000063823903
31
0
0
LINE
5
130
100
AcDbEntity
8
0
100
AcDbLine
10
0.25047289408313217
20
1.3199995374585196
30
0
11
0.25047292535896593
21
1.1800003350954753
31
0
0
ENDSEC
0
SECTION
2
OBJECTS
0
DICTIONARY
5
C
100
AcDbDictionary
3
ACAD_GROUP
350
D
3
ACAD_MLINESTYLE
350
17
0
DICTIONARY
5
D
100
AcDbDictionary
0
DICTIONARY
5
1A
330
C
100
AcDbDictionary
0
DICTIONARY
5
17
100
AcDbDictionary
0
ENDSEC
0
EOF
