0
SECTION
2
HEADER
9
$INSUNITS
70
1
9
$ACADVER
1
AC1014
9
$HANDSEED
5
FFFF
0
ENDSEC
0
SECTION
2
TABLES
0
TABLE
2
VPORT
5
8
100
AcDbSymbolTable
0
ENDTAB
0
TABLE
2
LTYPE
5
5
100
AcDbSymbolTable
0
LTYPE
5
14
100
AcDbSymbolTableRecord
100
AcDbLinetypeTableRecord
2
BYBLOCK
70
0
0
LTYPE
5
15
100
AcDbSymbolTableRecord
100
AcDbLinetypeTableRecord
2
BYLAYER
70
0
0
ENDTAB
0
TABLE
2
LAYER
5
2
100
AcDbSymbolTable
70
2
0
LAYER
5
50
100
AcDbSymbolTableRecord
100
AcDbLayerTableRecord
2
0
70
0
6
CONTINUOUS
0
ENDTAB
0
TABLE
2
STYLE
5
3
100
AcDbSymbolTable
70
1
0
STYLE
5
11
100
AcDbSymbolTableRecord
100
AcDbTextStyleTableRecord
2
STANDARD
70
0
0
ENDTAB
0
TABLE
2
VIEW
5
6
100
AcDbSymbolTable
70
0
0
ENDTAB
0
TABLE
2
UCS
5
7
100
AcDbSymbolTable
70
0
0
ENDTAB
0
TABLE
2
APPID
5
9
100
AcDbSymbolTable
70
2
0
APPID
5
12
100
AcDbSymbolTableRecord
100
AcDbRegAppTableRecord
2
ACAD
70
0
0
ENDTAB
0
TABLE
2
DIMSTYLE
5
A
100
AcDbSymbolTable
70
1
0
ENDTAB
0
TABLE
2
BLOCK_RECORD
5
1
100
AcDbSymbolTable
70
1
0
BLOCK_RECORD
5
1F
100
AcDbSymbolTableRecord
100
AcDbBlockTableRecord
2
*MODEL_SPACE
0
BLOCK_RECORD
5
1B
100
AcDbSymbolTableRecord
100
AcDbBlockTableRecord
2
*PAPER_SPACE
0
ENDTAB
0
ENDSEC
0
SECTION
2
BLOCKS
0
BLOCK
5
20
100
AcDbEntity
100
AcDbBlockBegin
2
*MODEL_SPACE
0
ENDBLK
5
21
100
AcDbEntity
100
AcDbBlockEnd
0
BLOCK
5
1C
100
AcDbEntity
100
AcDbBlockBegin
2
*PAPER_SPACE
0
ENDBLK
5
1D
100
AcDbEntity
100
AcDbBlockEnd
0
ENDSEC
0
SECTION
2
ENTITIES
0
LINE
5
100
100
AcDbEntity
8
0
100
AcDbLine
10
-1.2500000398928723
20
0.25000003989287245
30
0
11
-1.2500000398928723
21
-0.25000000797857447
31
0
0
LINE
5
101
100
AcDbEntity
8
0
100
AcDbLine
10
-1.0000000398928726
20
-0.25000000797857447
30
0
11
-1.2500000398928723
21
-0.25000000797857447
31
0
0
LINE
5
102
100
AcDbEntity
8
0
100
AcDbLine
10
-1.2500000398928723
20
-0.25000000797857447
30
0
11
-1.2500000398928723
21
-1.0000000079785745
31
0
0
LINE
5
103
100
AcDbEntity
8
0
100
AcDbLine
10
-1.2500000398928723
20
-1.0000000079785745
30
0
11
-0.49999992819287242
21
-1.0000000079785745
31
0
0
LINE
5
104
100
AcDbEntity
8
0
100
AcDbLine
10
-0.49999998404285095
20
-1.2499998164927868
30
0
11
-0.49999992819287242
21
-1.0000000079785745
31
0
0
LINE
5
105
100
AcDbEntity
8
0
100
AcDbLine
10
-0.49999992819287242
20
-1.0000000079785745
30
0
11
-0.49999998404285095
21
-1.2499998164927868
31
0
0
LINE
5
106
100
AcDbEntity
8
0
100
AcDbLine
10
-0.49999998404285095
20
-1.2499998164927868
30
0
11
0.50000001595714894
21
-1.2500000398928723
31
0
0
LINE
5
107
100
AcDbEntity
8
0
100
AcDbLine
10
0.50000001595714894
20
-1.2500000398928723
30
0
11
0.50000001595714894
21
-1.0000000079785745
31
0
0
LINE
5
108
100
AcDbEntity
8
0
100
AcDbLine
10
1.2499999601071272
20
-1.0000000079785745
30
0
11
0.50000001595714894
21
-1.0000000079785745
31
0
0
LINE
5
109
100
AcDbEntity
8
0
100
AcDbLine
10
1.2499999601071272
20
-1.0000000079785745
30
0
11
1.2499999601071272
21
-0.25000000797857447
31
0
0
LINE
5
110
100
AcDbEntity
8
0
100
AcDbLine
10
1.2499999601071272
20
-0.25000000797857447
30
0
11
0.99999996010712733
21
-0.25000000797857447
31
0
0
LINE
5
111
100
AcDbEntity
8
0
100
AcDbLine
10
0.99999996010712733
20
-0.25000000797857447
30
0
11
0.99999996010712733
21
0.25000000797857447
31
0
0
LINE
5
112
100
AcDbEntity
8
0
100
AcDbLine
10
0.99999996010712733
20
0.25000000797857447
30
0
11
1.2499999601071272
21
0.25000000797857447
31
0
0
LINE
5
113
100
AcDbEntity
8
0
100
AcDbLine
10
1.2499999601071272
20
0.25000000797857447
30
0
11
1.2499999601071272
21
1.0000000398928726
31
0
0
LINE
5
114
100
AcDbEntity
8
0
100
AcDbLine
10
1.2499999601071272
20
1.0000000398928726
30
0
11
0.50000001595714894
21
1.0000000398928726
31
0
0
LINE
5
115
100
AcDbEntity
8
0
100
AcDbLine
10
0.50000001595714894
20
1.0000000398928726
30
0
11
0.50000001595714894
21
1.2500000398928723
31
0
0
LINE
5
116
100
AcDbEntity
8
0
100
AcDbLine
10
0.50000001595714894
20
1.2500000398928723
30
0
11
-0.49999998404285095
21
1.2500000398928723
31
0
0
LINE
5
117
100
AcDbEntity
8
0
100
AcDbLine
10
-0.49999998404285095
20
1.2500000398928723
30
0
11
-0.49999998404285095
21
1.0000000398928726
31
0
0
LINE
5
118
100
AcDbEntity
8
0
100
AcDbLine
10
-0.49999998404285095
20
1.0000000398928726
30
0
11
-1.2500000398928723
21
1.0000000398928726
31
0
0
LINE
5
119
100
AcDbEntity
8
0
100
AcDbLine
10
-1.2500000398928723
20
1.0000000398928726
30
0
11
-1.2500000398928723
21
0.25000003989287245
31
0
0
LINE
5
120
100
AcDbEntity
8
0
100
AcDbLine
10
-1.2500000398928723
20
0.25000003989287245
30
0
11
-1.0000000398928726
21
0.25000000797857447
31
0
0
LINE
5
121
100
AcDbEntity
8
0
100
AcDbLine
10
-1.0000000398928726
20
-0.25000000797857447
30
0
11
-1.0000000398928726
21
0.25000000797857447
31
0
0
LWPOLYLINE
5
122
100
AcDbEntity
8
0
100
AcDbPolyline
90
4
70
1
43
0.0
10
0.37500013916445268
20
-0.12499996010712738
10
-0.3749998608923712
20
-0.12499996010712738
10
-0.3749998608923712
20
0.12500003989287251
10
0.37500013916445268
20
0.12500003989287251
0
LWPOLYLINE
5
123
100
AcDbEntity
8
0
100
AcDbPolyline
90
8
70
1
43
0.0
10
0.40900013913604066
20
0.50064656394696871
10
0.15699999818722093
20
0.50064656394696871
10
0.15699999818722093
20
0.38964656394696878
10
-0.15700000181277907
20
0.38964656394696878
10
-0.15700000181277907
20
0.50064656394696871
10
-0.40899986086395917
20
0.50064656394696871
10
-0.40899986086395917
20
0.53364656394696874
10
0.40900013913604066
20
0.53364656394696874
0
CIRCLE
5
124
100
AcDbEntity
8
0
100
AcDbCircle
10
4.3882159673271004e-08
20
-1.1249999281928329
30
0
40
0.066000000000000003
210
0
220
0
230
1
0
CIRCLE
5
125
100
AcDbEntity
8
0
100
AcDbCircle
10
2.3444674583158575e-07
20
1.1250000398928723
30
0
40
0.065999999999999906
210
0
220
0
230
1
0
ENDSEC
0
SECTION
2
OBJECTS
0
DICTIONARY
5
C
100
AcDbDictionary
3
ACAD_GROUP
350
D
3
ACAD_MLINESTYLE
350
17
0
DICTIONARY
5
D
100
AcDbDictionary
0
DICTIONARY
5
1A
330
C
100
AcDbDictionary
0
DICTIONARY
5
17
100
AcDbDictionary
0
ENDSEC
0
EOF
