0
SECTION
2
HEADER
9
$INSUNITS
70
1
9
$ACADVER
1
AC1014
9
$HANDSEED
5
FFFF
0
ENDSEC
0
SECTION
2
TABLES
0
TABLE
2
VPORT
5
8
100
AcDbSymbolTable
0
ENDTAB
0
TABLE
2
LTYPE
5
5
100
AcDbSymbolTable
0
LTYPE
5
14
100
AcDbSymbolTableRecord
100
AcDbLinetypeTableRecord
2
BYBLOCK
70
0
0
LTYPE
5
15
100
AcDbSymbolTableRecord
100
AcDbLinetypeTableRecord
2
BYLAYER
70
0
0
ENDTAB
0
TABLE
2
LAYER
5
2
100
AcDbSymbolTable
70
2
0
LAYER
5
50
100
AcDbSymbolTableRecord
100
AcDbLayerTableRecord
2
0
70
0
6
CONTINUOUS
0
ENDTAB
0
TABLE
2
STYLE
5
3
100
AcDbSymbolTable
70
1
0
STYLE
5
11
100
AcDbSymbolTableRecord
100
AcDbTextStyleTableRecord
2
STANDARD
70
0
0
ENDTAB
0
TABLE
2
VIEW
5
6
100
AcDbSymbolTable
70
0
0
ENDTAB
0
TABLE
2
UCS
5
7
100
AcDbSymbolTable
70
0
0
ENDTAB
0
TABLE
2
APPID
5
9
100
AcDbSymbolTable
70
2
0
APPID
5
12
100
AcDbSymbolTableRecord
100
AcDbRegAppTableRecord
2
ACAD
70
0
0
ENDTAB
0
TABLE
2
DIMSTYLE
5
A
100
AcDbSymbolTable
70
1
0
ENDTAB
0
TABLE
2
BLOCK_RECORD
5
1
100
AcDbSymbolTable
70
1
0
BLOCK_RECORD
5
1F
100
AcDbSymbolTableRecord
100
AcDbBlockTableRecord
2
*MODEL_SPACE
0
BLOCK_RECORD
5
1B
100
AcDbSymbolTableRecord
100
AcDbBlockTableRecord
2
*PAPER_SPACE
0
ENDTAB
0
ENDSEC
0
SECTION
2
BLOCKS
0
BLOCK
5
20
100
AcDbEntity
100
AcDbBlockBegin
2
*MODEL_SPACE
0
ENDBLK
5
21
100
AcDbEntity
100
AcDbBlockEnd
0
BLOCK
5
1C
100
AcDbEntity
100
AcDbBlockBegin
2
*PAPER_SPACE
0
ENDBLK
5
1D
100
AcDbEntity
100
AcDbBlockEnd
0
ENDSEC
0
SECTION
2
ENTITIES
0
LINE
5
100
100
AcDbEntity
8
0
100
AcDbLine
10
1.9999999281928293
20
-0.50000001595714894
30
0
11
2.2499999281928291
21
-0.50000001595714894
31
0
0
LINE
5
101
100
AcDbEntity
8
0
100
AcDbLine
10
2.2499999281928291
20
-0.50000001595714894
30
0
11
2.2500000718071704
21
-0.99999996010712733
31
0
0
LINE
5
102
100
AcDbEntity
8
0
100
AcDbLine
10
2.2500000718071704
20
-0.99999996010712733
30
0
11
1.5000000478714468
21
-0.99999996010712733
31
0
0
LINE
5
103
100
AcDbEntity
8
0
100
AcDbLine
10
1.5000000478714468
20
-0.99999996010712733
30
0
11
1.5000000478714468
21
-1.2499999601071272
31
0
0
LINE
5
104
100
AcDbEntity
8
0
100
AcDbLine
10
1.5000000478714468
20
-1.2499999601071272
30
0
11
1.0000000319142979
21
-1.2499999601071272
31
0
0
LINE
5
105
100
AcDbEntity
8
0
100
AcDbLine
10
1.0000000319142979
20
-1.2499999601071272
30
0
11
1.0000000319142979
21
-0.99999996010712733
31
0
0
LINE
5
106
100
AcDbEntity
8
0
100
AcDbLine
10
1.0000000319142979
20
-0.99999996010712733
30
0
11
0.25000000797857447
21
-0.99999996010712733
31
0
0
LINE
5
107
100
AcDbEntity
8
0
100
AcDbLine
10
0.25000000797857447
20
-0.99999996010712733
30
0
11
0.25000000797857447
21
-1.2499999601071272
31
0
0
LINE
5
108
100
AcDbEntity
8
0
100
AcDbLine
10
0.25000000797857447
20
-1.2499999601071272
30
0
11
-0.25000000797857447
21
-1.2499999601071272
31
0
0
LINE
5
109
100
AcDbEntity
8
0
100
AcDbLine
10
-0.25000000797857447
20
-1.2499999601071272
30
0
11
-0.25000000797857447
21
-0.99999996010712733
31
0
0
LINE
5
110
100
AcDbEntity
8
0
100
AcDbLine
10
-0.25000000797857447
20
-0.99999996010712733
30
0
11
-1.000000047871447
21
-0.99999996010712733
31
0
0
LINE
5
111
100
AcDbEntity
8
0
100
AcDbLine
10
-1.000000047871447
20
-0.99999996010712733
30
0
11
-1.000000047871447
21
-1.2499999601071272
31
0
0
LINE
5
112
100
AcDbEntity
8
0
100
AcDbLine
10
-1.000000047871447
20
-1.2499999601071272
30
0
11
-1.5000000478714468
21
-1.2499999601071272
31
0
0
LINE
5
113
100
AcDbEntity
8
0
100
AcDbLine
10
-1.5000000478714468
20
-1.2499999601071272
30
0
11
-1.5000000478714468
21
-0.99999996010712733
31
0
0
LINE
5
114
100
AcDbEntity
8
0
100
AcDbLine
10
-1.5000000478714468
20
-0.99999996010712733
30
0
11
-2.2500000718071704
21
-0.99999996010712733
31
0
0
LINE
5
115
100
AcDbEntity
8
0
100
AcDbLine
10
-2.2500000718071704
20
-0.99999996010712733
30
0
11
-2.2500000718071704
21
-0.50000001595714894
31
0
0
LINE
5
116
100
AcDbEntity
8
0
100
AcDbLine
10
-2.2500000718071704
20
-0.50000001595714894
30
0
11
-2.0000000718071704
21
-0.50000001595714894
31
0
0
LINE
5
117
100
AcDbEntity
8
0
100
AcDbLine
10
-2.0000000718071704
20
0.49999998404285095
30
0
11
-2.2500000718071704
21
0.49999992819287242
31
0
0
LINE
5
118
100
AcDbEntity
8
0
100
AcDbLine
10
-2.2500000718071704
20
0.49999992819287242
30
0
11
-2.2500000718071704
21
1.0000000319142979
31
0
0
LINE
5
119
100
AcDbEntity
8
0
100
AcDbLine
10
-1.5000000478714468
20
1.0000000398928726
30
0
11
-2.2500000718071704
21
1.0000000319142979
31
0
0
LINE
5
120
100
AcDbEntity
8
0
100
AcDbLine
10
-1.5000000478714468
20
1.0000000398928726
30
0
11
-1.5000000478714468
21
1.2500000398928723
31
0
0
LINE
5
121
100
AcDbEntity
8
0
100
AcDbLine
10
-1.5000000478714468
20
1.2500000398928723
30
0
11
-1.000000047871447
21
1.2500000398928723
31
0
0
LINE
5
122
100
AcDbEntity
8
0
100
AcDbLine
10
-1.000000047871447
20
1.2500000398928723
30
0
11
-1.000000047871447
21
1.0000000398928726
31
0
0
LINE
5
123
100
AcDbEntity
8
0
100
AcDbLine
10
-1.000000047871447
20
1.0000000398928726
30
0
11
-0.25000000797857447
21
1.0000000398928726
31
0
0
LINE
5
124
100
AcDbEntity
8
0
100
AcDbLine
10
-0.25000000797857447
20
1.0000000398928726
30
0
11
-0.25000000797857447
21
1.2500000398928723
31
0
0
LINE
5
125
100
AcDbEntity
8
0
100
AcDbLine
10
-0.25000000797857447
20
1.2500000398928723
30
0
11
0.25000000797857447
21
1.2500000398928723
31
0
0
LINE
5
126
100
AcDbEntity
8
0
100
AcDbLine
10
0.25000000797857447
20
1.2500000398928723
30
0
11
0.25000000797857447
21
1.0000000398928726
31
0
0
LINE
5
127
100
AcDbEntity
8
0
100
AcDbLine
10
0.25000000797857447
20
1.0000000398928726
30
0
11
1.0000000319142979
21
1.0000000398928726
31
0
0
LINE
5
128
100
AcDbEntity
8
0
100
AcDbLine
10
1.0000000319142979
20
1.0000000398928726
30
0
11
1.0000000319142979
21
1.2500000398928723
31
0
0
LINE
5
129
100
AcDbEntity
8
0
100
AcDbLine
10
1.0000000319142979
20
1.2500000398928723
30
0
11
1.5000000478714468
21
1.2500000398928723
31
0
0
LINE
5
130
100
AcDbEntity
8
0
100
AcDbLine
10
1.5000000478714468
20
1.2500000398928723
30
0
11
1.5000000478714468
21
1.0000000398928726
31
0
0
LINE
5
131
100
AcDbEntity
8
0
100
AcDbLine
10
1.5000000478714468
20
1.0000000398928726
30
0
11
2.2500000718071704
21
1.0000000398928726
31
0
0
LINE
5
132
100
AcDbEntity
8
0
100
AcDbLine
10
2.2500000718071704
20
1.0000000398928726
30
0
11
2.2499999281928291
21
0.49999998404285095
31
0
0
LINE
5
133
100
AcDbEntity
8
0
100
AcDbLine
10
2.2499999281928291
20
0.49999998404285095
30
0
11
1.9999999281928293
21
0.49999998404285095
31
0
0
LINE
5
134
100
AcDbEntity
8
0
100
AcDbLine
10
-1.8699998527055322
20
-0.070000398928064658
30
0
11
-1.8699998968941167
21
-0.16000039892805387
31
0
0
LINE
5
135
100
AcDbEntity
8
0
100
AcDbLine
10
-1.8699998968941167
20
-0.16000039892805387
30
0
11
-1.7599998968941302
21
-0.16000045293632348
31
0
0
LINE
5
136
100
AcDbEntity
8
0
100
AcDbLine
10
-1.7599998968941302
20
-0.16000045293632348
30
0
11
-1.7599997397791638
21
0.15999954706363795
31
0
0
LINE
5
137
100
AcDbEntity
8
0
100
AcDbLine
10
-1.7599997397791638
20
0.15999954706363795
30
0
11
-1.8699998968941167
21
0.15999960107198463
31
0
0
LINE
5
138
100
AcDbEntity
8
0
100
AcDbLine
10
-1.8699998968941167
20
0.15999960107198463
30
0
11
-1.8699999410827011
21
0.069999601071995432
31
0
0
LINE
5
139
100
AcDbEntity
8
0
100
AcDbLine
10
-1.8699999410827011
20
0.069999601071995432
30
0
11
-1.9999998517281365
21
0.070000359035830434
31
0
0
LINE
5
140
100
AcDbEntity
8
0
100
AcDbLine
10
-1.8699998527055322
20
-0.070000398928064658
30
0
11
-1.9999998527055167
21
-0.070000335100109667
31
0
0
LINE
5
141
100
AcDbEntity
8
0
100
AcDbLine
10
2.000000063339908
20
-0.07000001595714897
30
0
11
1.8700000633399083
21
-0.070000015049586223
31
0
0
LINE
5
142
100
AcDbEntity
8
0
100
AcDbLine
10
1.8700000633399083
20
-0.070000015049586223
30
0
11
1.8700000627115956
21
-0.16000001504958627
31
0
0
LINE
5
143
100
AcDbEntity
8
0
100
AcDbLine
10
1.8700000627115956
20
-0.16000001504958627
30
0
11
1.7600000627115953
21
-0.16000001428164834
31
0
0
LINE
5
144
100
AcDbEntity
8
0
100
AcDbLine
10
1.7600000627115953
20
-0.16000001428164834
30
0
11
1.7600000649455962
21
0.15999998571835156
31
0
0
LINE
5
145
100
AcDbEntity
8
0
100
AcDbLine
10
1.7600000649455962
20
0.15999998571835156
30
0
11
1.8700000649455963
21
0.15999998495041395
31
0
0
LINE
5
146
100
AcDbEntity
8
0
100
AcDbLine
10
1.8700000649455963
20
0.15999998495041395
30
0
11
1.8700000643172836
21
0.069999984950413902
31
0
0
LINE
5
147
100
AcDbEntity
8
0
100
AcDbLine
10
1.8700000643172836
20
0.069999984950413902
30
0
11
2.0000000643172835
21
0.069999984042850988
31
0
0
LINE
5
148
100
AcDbEntity
8
0
100
AcDbLine
10
1.9999999281928293
20
0.49999998404285095
30
0
11
2.0000000643172835
21
0.069999984042850988
31
0
0
LINE
5
149
100
AcDbEntity
8
0
100
AcDbLine
10
2.000000063339908
20
-0.07000001595714897
30
0
11
1.9999999281928293
21
-0.50000001595714894
31
0
0
CIRCLE
5
150
100
AcDbEntity
8
0
100
AcDbCircle
10
1.2500000560993521
20
-1.1250000573460046
30
0
40
0.06600000000000017
210
0
220
0
230
1
0
CIRCLE
5
151
100
AcDbEntity
8
0
100
AcDbCircle
10
-5.7346005404931204e-09
20
-1.1250000398928723
30
0
40
0.065999999999999809
210
0
220
0
230
1
0
CIRCLE
5
152
100
AcDbEntity
8
0
100
AcDbCircle
10
-1.2500000476221165
20
-1.1250000224397405
30
0
40
0.066000000000000031
210
0
220
0
230
1
0
CIRCLE
5
153
100
AcDbEntity
8
0
100
AcDbCircle
10
-1.2500000319142979
20
1.1250000359035852
30
0
40
0.065999999999999948
210
0
220
0
230
1
0
CIRCLE
5
154
100
AcDbEntity
8
0
100
AcDbCircle
10
9.9732180478334603e-09
20
1.1250000359035852
30
0
40
0.065999999999999864
210
0
220
0
230
1
0
CIRCLE
5
155
100
AcDbEntity
8
0
100
AcDbCircle
10
1.2500000718071707
20
1.1250000359035852
30
0
40
0.066000000000000184
210
0
220
0
230
1
0
LINE
5
156
100
AcDbEntity
8
0
100
AcDbLine
10
-2.0000000718071704
20
-0.50000001595714894
30
0
11
-1.9999998527055167
21
-0.070000335100109667
31
0
0
LINE
5
157
100
AcDbEntity
8
0
100
AcDbLine
10
-1.9999998517281365
20
0.070000359035830434
30
0
11
-2.0000000718071704
21
0.49999998404285095
31
0
0
LWPOLYLINE
5
158
100
AcDbEntity
8
0
100
AcDbPolyline
90
4
70
1
43
0.0
10
-1.5
20
-0.062499999999999986
10
1.5
20
-0.062499999999999986
10
1.5
20
0.062499999999999986
10
-1.5
20
0.062499999999999986
0
ENDSEC
0
SECTION
2
OBJECTS
0
DICTIONARY
5
C
100
AcDbDictionary
3
ACAD_GROUP
350
D
3
ACAD_MLINESTYLE
350
17
0
DICTIONARY
5
D
100
AcDbDictionary
0
DICTIONARY
5
1A
330
C
100
AcDbDictionary
0
DICTIONARY
5
17
100
AcDbDictionary
0
ENDSEC
0
EOF
